<?xml version="1.0" encoding="UTF-8" standalone="no"?>
<svg width="1040px" height="990px" viewBox="0 0 1040 990" version="1.1" xmlns="http://www.w3.org/2000/svg" xmlns:xlink="http://www.w3.org/1999/xlink" xmlns:sketch="http://www.bohemiancoding.com/sketch/ns">
    <!-- Generator: Sketch 3.5.2 (25235) - http://www.bohemiancoding.com/sketch -->
    <title>Artboard 1</title>
    <desc>Created with Sketch.</desc>
    <defs></defs>
    <g id="illustrations" stroke="none" stroke-width="1" fill="none" fill-rule="evenodd" sketch:type="MSPage">
        <g id="Artboard-1" sketch:type="MSArtboardGroup">
            <g id="Group" sketch:type="MSLayerGroup" transform="translate(519.847813, 143.577249) rotate(-72.000000) translate(-519.847813, -143.577249) translate(-83.152187, 133.577249)">
                <path d="M298,0 L318,0 L298,20 L298,0 Z M298,8.17124146e-14 L298,20 L20,20 L20,3.06446431e-14 L298,8.17124146e-14 Z M20,0 L20,20 L0,20 L20,0 Z" id="Triangle-1" fill="#000000" sketch:type="MSShapeGroup"></path>
                <path d="M596,0 L616,0 L596,20 L596,0 Z M596,8.17124146e-14 L596,20 L318,20 L318,3.06446431e-14 L596,8.17124146e-14 Z M318,0 L318,20 L298,20 L318,0 Z" id="Triangle-1-Copy" fill="#494949" sketch:type="MSShapeGroup"></path>
                <path d="M888,0 L908,0 L888,20 L888,0 Z M888,8.17124146e-14 L888,20 L610,20 L610,3.06446431e-14 L888,8.17124146e-14 Z M610,0 L610,20 L590,20 L610,0 Z" id="Triangle-1-Copy-2" fill="#BFBFBF" sketch:type="MSShapeGroup"></path>
            </g>
            <g id="Group-Copy" sketch:type="MSLayerGroup" transform="translate(382.847813, 629.577249) rotate(-72.000000) translate(-382.847813, -629.577249) translate(-220.152187, 619.577249)">
                <path d="M298,0 L318,0 L298,20 L298,0 Z M298,8.17124146e-14 L298,20 L20,20 L20,3.06446431e-14 L298,8.17124146e-14 Z M20,0 L20,20 L0,20 L20,0 Z" id="Triangle-1" fill="#000000" sketch:type="MSShapeGroup"></path>
                <path d="M596,0 L616,0 L596,20 L596,0 Z M596,8.17124146e-14 L596,20 L318,20 L318,3.06446431e-14 L596,8.17124146e-14 Z M318,0 L318,20 L298,20 L318,0 Z" id="Triangle-1-Copy" fill="#494949" sketch:type="MSShapeGroup"></path>
                <path d="M888,0 L908,0 L888,20 L888,0 Z M888,8.17124146e-14 L888,20 L610,20 L610,3.06446431e-14 L888,8.17124146e-14 Z M610,0 L610,20 L590,20 L610,0 Z" id="Triangle-1-Copy-2" fill="#BFBFBF" sketch:type="MSShapeGroup"></path>
                <path d="M1186,0 L1206,0 L1186,20 L1186,0 Z M1186,8.17124146e-14 L1186,20 L908,20 L908,3.06446431e-14 L1186,8.17124146e-14 Z M908,0 L908,20 L888,20 L908,0 Z" id="Triangle-1-Copy-3" fill="#EAEAEA" sketch:type="MSShapeGroup"></path>
            </g>
            <g id="Group-Copy-2" sketch:type="MSLayerGroup" transform="translate(259.847813, 1071.577249) rotate(-72.000000) translate(-259.847813, -1071.577249) translate(-343.152187, 1061.577249)">
                <path d="M888,0 L908,0 L888,20 L888,0 Z M888,8.17124146e-14 L888,20 L610,20 L610,3.06446431e-14 L888,8.17124146e-14 Z M610,0 L610,20 L590,20 L610,0 Z" id="Triangle-1-Copy-2" fill="#BFBFBF" sketch:type="MSShapeGroup"></path>
                <path d="M1186,0 L1206,0 L1186,20 L1186,0 Z M1186,8.17124146e-14 L1186,20 L908,20 L908,3.06446431e-14 L1186,8.17124146e-14 Z M908,0 L908,20 L888,20 L908,0 Z" id="Triangle-1-Copy-3" fill="#EAEAEA" sketch:type="MSShapeGroup"></path>
            </g>
            <g id="Group-Copy-5" sketch:type="MSLayerGroup" transform="translate(484.847813, 443.577249) rotate(-72.000000) translate(-484.847813, -443.577249) translate(-118.152187, 433.577249)">
                <path d="M298,0 L318,0 L298,20 L298,0 Z M298,8.17124146e-14 L298,20 L20,20 L20,3.06446431e-14 L298,8.17124146e-14 Z M20,0 L20,20 L0,20 L20,0 Z" id="Triangle-1" fill="#000000" sketch:type="MSShapeGroup"></path>
                <path d="M596,0 L616,0 L596,20 L596,0 Z M596,8.17124146e-14 L596,20 L318,20 L318,3.06446431e-14 L596,8.17124146e-14 Z M318,0 L318,20 L298,20 L318,0 Z" id="Triangle-1-Copy" fill="#494949" sketch:type="MSShapeGroup"></path>
                <path d="M888,0 L908,0 L888,20 L888,0 Z M888,8.17124146e-14 L888,20 L610,20 L610,3.06446431e-14 L888,8.17124146e-14 Z M610,0 L610,20 L590,20 L610,0 Z" id="Triangle-1-Copy-2" fill="#BFBFBF" sketch:type="MSShapeGroup"></path>
                <path d="M1186,0 L1206,0 L1186,20 L1186,0 Z M1186,8.17124146e-14 L1186,20 L908,20 L908,3.06446431e-14 L1186,8.17124146e-14 Z M908,0 L908,20 L888,20 L908,0 Z" id="Triangle-1-Copy-3" fill="#EAEAEA" sketch:type="MSShapeGroup"></path>
            </g>
            <g id="Group-Copy-4" sketch:type="MSLayerGroup" transform="translate(436.847813, 653.577249) rotate(-72.000000) translate(-436.847813, -653.577249) translate(-166.152187, 643.577249)">
                <path d="M298,0 L318,0 L298,20 L298,0 Z M298,8.17124146e-14 L298,20 L20,20 L20,3.06446431e-14 L298,8.17124146e-14 Z M20,0 L20,20 L0,20 L20,0 Z" id="Triangle-1" fill="#000000" sketch:type="MSShapeGroup"></path>
                <path d="M596,0 L616,0 L596,20 L596,0 Z M596,8.17124146e-14 L596,20 L318,20 L318,3.06446431e-14 L596,8.17124146e-14 Z M318,0 L318,20 L298,20 L318,0 Z" id="Triangle-1-Copy" fill="#494949" sketch:type="MSShapeGroup"></path>
                <path d="M888,0 L908,0 L888,20 L888,0 Z M888,8.17124146e-14 L888,20 L610,20 L610,3.06446431e-14 L888,8.17124146e-14 Z M610,0 L610,20 L590,20 L610,0 Z" id="Triangle-1-Copy-2" fill="#BFBFBF" sketch:type="MSShapeGroup"></path>
                <path d="M1186,0 L1206,0 L1186,20 L1186,0 Z M1186,8.17124146e-14 L1186,20 L908,20 L908,3.06446431e-14 L1186,8.17124146e-14 Z M908,0 L908,20 L888,20 L908,0 Z" id="Triangle-1-Copy-3" fill="#EAEAEA" sketch:type="MSShapeGroup"></path>
            </g>
            <g id="Group-Copy-3" sketch:type="MSLayerGroup" transform="translate(580.847813, 273.577249) rotate(-72.000000) translate(-580.847813, -273.577249) translate(-22.152187, 263.577249)">
                <path d="M298,0 L318,0 L298,20 L298,0 Z M298,8.17124146e-14 L298,20 L20,20 L20,3.06446431e-14 L298,8.17124146e-14 Z M20,0 L20,20 L0,20 L20,0 Z" id="Triangle-1" fill="#000000" sketch:type="MSShapeGroup"></path>
                <path d="M596,0 L616,0 L596,20 L596,0 Z M596,8.17124146e-14 L596,20 L318,20 L318,3.06446431e-14 L596,8.17124146e-14 Z M318,0 L318,20 L298,20 L318,0 Z" id="Triangle-1-Copy" fill="#494949" sketch:type="MSShapeGroup"></path>
                <path d="M888,0 L908,0 L888,20 L888,0 Z M888,8.17124146e-14 L888,20 L610,20 L610,3.06446431e-14 L888,8.17124146e-14 Z M610,0 L610,20 L590,20 L610,0 Z" id="Triangle-1-Copy-2" fill="#BFBFBF" sketch:type="MSShapeGroup"></path>
                <path d="M1186,0 L1206,0 L1186,20 L1186,0 Z M1186,8.17124146e-14 L1186,20 L908,20 L908,3.06446431e-14 L1186,8.17124146e-14 Z M908,0 L908,20 L888,20 L908,0 Z" id="Triangle-1-Copy-3" fill="#EAEAEA" sketch:type="MSShapeGroup"></path>
            </g>
            <g id="Group-Copy-10" sketch:type="MSLayerGroup" transform="translate(740.000000, 43.000000) rotate(-72.000000) translate(-740.000000, -43.000000) translate(137.000000, 33.000000)">
                <path d="M298,0 L318,0 L298,20 L298,0 Z M298,8.17124146e-14 L298,20 L20,20 L20,3.06446431e-14 L298,8.17124146e-14 Z M20,0 L20,20 L0,20 L20,0 Z" id="Triangle-1" fill="#000000" sketch:type="MSShapeGroup"></path>
                <path d="M596,0 L616,0 L596,20 L596,0 Z M596,8.17124146e-14 L596,20 L318,20 L318,3.06446431e-14 L596,8.17124146e-14 Z M318,0 L318,20 L298,20 L318,0 Z" id="Triangle-1-Copy" fill="#494949" sketch:type="MSShapeGroup"></path>
                <path d="M888,0 L908,0 L888,20 L888,0 Z M888,8.17124146e-14 L888,20 L610,20 L610,3.06446431e-14 L888,8.17124146e-14 Z M610,0 L610,20 L590,20 L610,0 Z" id="Triangle-1-Copy-2" fill="#BFBFBF" sketch:type="MSShapeGroup"></path>
            </g>
            <g id="Group-Copy-9" sketch:type="MSLayerGroup" transform="translate(617.000000, 485.000000) rotate(-72.000000) translate(-617.000000, -485.000000) translate(14.000000, 475.000000)">
                <path d="M298,0 L318,0 L298,20 L298,0 Z M298,8.17124146e-14 L298,20 L20,20 L20,3.06446431e-14 L298,8.17124146e-14 Z M20,0 L20,20 L0,20 L20,0 Z" id="Triangle-1" fill="#000000" sketch:type="MSShapeGroup"></path>
                <path d="M596,0 L616,0 L596,20 L596,0 Z M596,8.17124146e-14 L596,20 L318,20 L318,3.06446431e-14 L596,8.17124146e-14 Z M318,0 L318,20 L298,20 L318,0 Z" id="Triangle-1-Copy" fill="#494949" sketch:type="MSShapeGroup"></path>
                <path d="M888,0 L908,0 L888,20 L888,0 Z M888,8.17124146e-14 L888,20 L610,20 L610,3.06446431e-14 L888,8.17124146e-14 Z M610,0 L610,20 L590,20 L610,0 Z" id="Triangle-1-Copy-2" fill="#BFBFBF" sketch:type="MSShapeGroup"></path>
                <path d="M1186,0 L1206,0 L1186,20 L1186,0 Z M1186,8.17124146e-14 L1186,20 L908,20 L908,3.06446431e-14 L1186,8.17124146e-14 Z M908,0 L908,20 L888,20 L908,0 Z" id="Triangle-1-Copy-3" fill="#EAEAEA" sketch:type="MSShapeGroup"></path>
            </g>
            <g id="Group-Copy-7" sketch:type="MSLayerGroup" transform="translate(794.000000, 67.000000) rotate(-72.000000) translate(-794.000000, -67.000000) translate(191.000000, 57.000000)">
                <path d="M298,0 L318,0 L298,20 L298,0 Z M298,8.17124146e-14 L298,20 L20,20 L20,3.06446431e-14 L298,8.17124146e-14 Z M20,0 L20,20 L0,20 L20,0 Z" id="Triangle-1" fill="#000000" sketch:type="MSShapeGroup"></path>
                <path d="M596,0 L616,0 L596,20 L596,0 Z M596,8.17124146e-14 L596,20 L318,20 L318,3.06446431e-14 L596,8.17124146e-14 Z M318,0 L318,20 L298,20 L318,0 Z" id="Triangle-1-Copy" fill="#494949" sketch:type="MSShapeGroup"></path>
                <path d="M888,0 L908,0 L888,20 L888,0 Z M888,8.17124146e-14 L888,20 L610,20 L610,3.06446431e-14 L888,8.17124146e-14 Z M610,0 L610,20 L590,20 L610,0 Z" id="Triangle-1-Copy-2" fill="#BFBFBF" sketch:type="MSShapeGroup"></path>
            </g>
            <g id="Group-Copy-11" sketch:type="MSLayerGroup" transform="translate(877.000000, -443.000000) rotate(-72.000000) translate(-877.000000, 443.000000) translate(274.000000, -453.000000)" fill="#000000">
                <path d="M298,0 L318,0 L298,20 L298,0 Z M298,8.17124146e-14 L298,20 L20,20 L20,3.06446431e-14 L298,8.17124146e-14 Z M20,0 L20,20 L0,20 L20,0 Z" id="Triangle-1" sketch:type="MSShapeGroup"></path>
            </g>
            <g id="Group-Copy-13" sketch:type="MSLayerGroup" transform="translate(632.847813, 241.577249) rotate(-72.000000) translate(-632.847813, -241.577249) translate(29.847813, 231.577249)">
                <path d="M298,0 L318,0 L298,20 L298,0 Z M298,8.17124146e-14 L298,20 L20,20 L20,3.06446431e-14 L298,8.17124146e-14 Z M20,0 L20,20 L0,20 L20,0 Z" id="Triangle-1" fill="#000000" sketch:type="MSShapeGroup"></path>
                <path d="M596,0 L616,0 L596,20 L596,0 Z M596,8.17124146e-14 L596,20 L318,20 L318,3.06446431e-14 L596,8.17124146e-14 Z M318,0 L318,20 L298,20 L318,0 Z" id="Triangle-1-Copy" fill="#494949" sketch:type="MSShapeGroup"></path>
                <path d="M888,0 L908,0 L888,20 L888,0 Z M888,8.17124146e-14 L888,20 L610,20 L610,3.06446431e-14 L888,8.17124146e-14 Z M610,0 L610,20 L590,20 L610,0 Z" id="Triangle-1-Copy-2" fill="#BFBFBF" sketch:type="MSShapeGroup"></path>
            </g>
            <g id="Group-Copy-8" sketch:type="MSLayerGroup" transform="translate(842.000000, -143.000000) rotate(-72.000000) translate(-842.000000, 143.000000) translate(239.000000, -153.000000)">
                <path d="M298,0 L318,0 L298,20 L298,0 Z M298,8.17124146e-14 L298,20 L20,20 L20,3.06446431e-14 L298,8.17124146e-14 Z M20,0 L20,20 L0,20 L20,0 Z" id="Triangle-1" fill="#000000" sketch:type="MSShapeGroup"></path>
                <path d="M596,0 L616,0 L596,20 L596,0 Z M596,8.17124146e-14 L596,20 L318,20 L318,3.06446431e-14 L596,8.17124146e-14 Z M318,0 L318,20 L298,20 L318,0 Z" id="Triangle-1-Copy" fill="#494949" sketch:type="MSShapeGroup"></path>
            </g>
            <g id="Group-Copy-6" sketch:type="MSLayerGroup" transform="translate(938.000000, -313.000000) rotate(-72.000000) translate(-938.000000, 313.000000) translate(335.000000, -323.000000)" fill="#000000">
                <path d="M298,0 L318,0 L298,20 L298,0 Z M298,8.17124146e-14 L298,20 L20,20 L20,3.06446431e-14 L298,8.17124146e-14 Z M20,0 L20,20 L0,20 L20,0 Z" id="Triangle-1" sketch:type="MSShapeGroup"></path>
            </g>
            <g id="Group-Copy-12" sketch:type="MSLayerGroup" transform="translate(736.847813, -143.422751) rotate(-72.000000) translate(-736.847813, 143.422751) translate(133.847813, -153.422751)">
                <path d="M298,0 L318,0 L298,20 L298,0 Z M298,8.17124146e-14 L298,20 L20,20 L20,3.06446431e-14 L298,8.17124146e-14 Z M20,0 L20,20 L0,20 L20,0 Z" id="Triangle-1" fill="#000000" sketch:type="MSShapeGroup"></path>
                <path d="M596,0 L616,0 L596,20 L596,0 Z M596,8.17124146e-14 L596,20 L318,20 L318,3.06446431e-14 L596,8.17124146e-14 Z M318,0 L318,20 L298,20 L318,0 Z" id="Triangle-1-Copy" fill="#494949" sketch:type="MSShapeGroup"></path>
            </g>
            <g id="Group-Copy-26" sketch:type="MSLayerGroup" transform="translate(191.847813, 259.500000) rotate(-72.000000) translate(-191.847813, -259.500000) translate(-411.152187, 249.500000)">
                <path d="M298,0 L318,0 L298,20 L298,0 Z M298,8.17124146e-14 L298,20 L20,20 L20,3.06446431e-14 L298,8.17124146e-14 Z M20,0 L20,20 L0,20 L20,0 Z" id="Triangle-1" fill="#000000" sketch:type="MSShapeGroup"></path>
                <path d="M596,0 L616,0 L596,20 L596,0 Z M596,8.17124146e-14 L596,20 L318,20 L318,3.06446431e-14 L596,8.17124146e-14 Z M318,0 L318,20 L298,20 L318,0 Z" id="Triangle-1-Copy" fill="#494949" sketch:type="MSShapeGroup"></path>
                <path d="M888,0 L908,0 L888,20 L888,0 Z M888,8.17124146e-14 L888,20 L610,20 L610,3.06446431e-14 L888,8.17124146e-14 Z M610,0 L610,20 L590,20 L610,0 Z" id="Triangle-1-Copy-2" fill="#BFBFBF" sketch:type="MSShapeGroup"></path>
            </g>
            <g id="Group-Copy-25" sketch:type="MSLayerGroup" transform="translate(54.847813, 745.500000) rotate(-72.000000) translate(-54.847813, -745.500000) translate(-548.152187, 735.500000)">
                <path d="M596,0 L616,0 L596,20 L596,0 Z M596,8.17124146e-14 L596,20 L318,20 L318,3.06446431e-14 L596,8.17124146e-14 Z M318,0 L318,20 L298,20 L318,0 Z" id="Triangle-1-Copy" fill="#494949" sketch:type="MSShapeGroup"></path>
                <path d="M888,0 L908,0 L888,20 L888,0 Z M888,8.17124146e-14 L888,20 L610,20 L610,3.06446431e-14 L888,8.17124146e-14 Z M610,0 L610,20 L590,20 L610,0 Z" id="Triangle-1-Copy-2" fill="#BFBFBF" sketch:type="MSShapeGroup"></path>
                <path d="M1186,0 L1206,0 L1186,20 L1186,0 Z M1186,8.17124146e-14 L1186,20 L908,20 L908,3.06446431e-14 L1186,8.17124146e-14 Z M908,0 L908,20 L888,20 L908,0 Z" id="Triangle-1-Copy-3" fill="#EAEAEA" sketch:type="MSShapeGroup"></path>
            </g>
            <g id="Group-Copy-23" sketch:type="MSLayerGroup" transform="translate(156.847813, 559.500000) rotate(-72.000000) translate(-156.847813, -559.500000) translate(-446.152187, 549.500000)">
                <path d="M298,0 L318,0 L298,20 L298,0 Z M298,8.17124146e-14 L298,20 L20,20 L20,3.06446431e-14 L298,8.17124146e-14 Z M20,0 L20,20 L0,20 L20,0 Z" id="Triangle-1" fill="#000000" sketch:type="MSShapeGroup"></path>
                <path d="M596,0 L616,0 L596,20 L596,0 Z M596,8.17124146e-14 L596,20 L318,20 L318,3.06446431e-14 L596,8.17124146e-14 Z M318,0 L318,20 L298,20 L318,0 Z" id="Triangle-1-Copy" fill="#494949" sketch:type="MSShapeGroup"></path>
                <path d="M888,0 L908,0 L888,20 L888,0 Z M888,8.17124146e-14 L888,20 L610,20 L610,3.06446431e-14 L888,8.17124146e-14 Z M610,0 L610,20 L590,20 L610,0 Z" id="Triangle-1-Copy-2" fill="#BFBFBF" sketch:type="MSShapeGroup"></path>
                <path d="M1186,0 L1206,0 L1186,20 L1186,0 Z M1186,8.17124146e-14 L1186,20 L908,20 L908,3.06446431e-14 L1186,8.17124146e-14 Z M908,0 L908,20 L888,20 L908,0 Z" id="Triangle-1-Copy-3" fill="#EAEAEA" sketch:type="MSShapeGroup"></path>
            </g>
            <g id="Group-Copy-22" sketch:type="MSLayerGroup" transform="translate(108.847813, 769.500000) rotate(-72.000000) translate(-108.847813, -769.500000) translate(-494.152187, 759.500000)">
                <path d="M596,0 L616,0 L596,20 L596,0 Z M596,8.17124146e-14 L596,20 L318,20 L318,3.06446431e-14 L596,8.17124146e-14 Z M318,0 L318,20 L298,20 L318,0 Z" id="Triangle-1-Copy" fill="#494949" sketch:type="MSShapeGroup"></path>
                <path d="M888,0 L908,0 L888,20 L888,0 Z M888,8.17124146e-14 L888,20 L610,20 L610,3.06446431e-14 L888,8.17124146e-14 Z M610,0 L610,20 L590,20 L610,0 Z" id="Triangle-1-Copy-2" fill="#BFBFBF" sketch:type="MSShapeGroup"></path>
                <path d="M1186,0 L1206,0 L1186,20 L1186,0 Z M1186,8.17124146e-14 L1186,20 L908,20 L908,3.06446431e-14 L1186,8.17124146e-14 Z M908,0 L908,20 L888,20 L908,0 Z" id="Triangle-1-Copy-3" fill="#EAEAEA" sketch:type="MSShapeGroup"></path>
            </g>
            <g id="Group-Copy-21" sketch:type="MSLayerGroup" transform="translate(252.847813, 389.500000) rotate(-72.000000) translate(-252.847813, -389.500000) translate(-350.152187, 379.500000)">
                <path d="M298,0 L318,0 L298,20 L298,0 Z M298,8.17124146e-14 L298,20 L20,20 L20,3.06446431e-14 L298,8.17124146e-14 Z M20,0 L20,20 L0,20 L20,0 Z" id="Triangle-1" fill="#000000" sketch:type="MSShapeGroup"></path>
                <path d="M596,0 L616,0 L596,20 L596,0 Z M596,8.17124146e-14 L596,20 L318,20 L318,3.06446431e-14 L596,8.17124146e-14 Z M318,0 L318,20 L298,20 L318,0 Z" id="Triangle-1-Copy" fill="#494949" sketch:type="MSShapeGroup"></path>
                <path d="M888,0 L908,0 L888,20 L888,0 Z M888,8.17124146e-14 L888,20 L610,20 L610,3.06446431e-14 L888,8.17124146e-14 Z M610,0 L610,20 L590,20 L610,0 Z" id="Triangle-1-Copy-2" fill="#BFBFBF" sketch:type="MSShapeGroup"></path>
                <path d="M1186,0 L1206,0 L1186,20 L1186,0 Z M1186,8.17124146e-14 L1186,20 L908,20 L908,3.06446431e-14 L1186,8.17124146e-14 Z M908,0 L908,20 L888,20 L908,0 Z" id="Triangle-1-Copy-3" fill="#EAEAEA" sketch:type="MSShapeGroup"></path>
            </g>
            <g id="Group-Copy-20" sketch:type="MSLayerGroup" transform="translate(411.847813, 158.500000) rotate(-72.000000) translate(-411.847813, -158.500000) translate(-191.152187, 148.500000)">
                <path d="M298,0 L318,0 L298,20 L298,0 Z M298,8.17124146e-14 L298,20 L20,20 L20,3.06446431e-14 L298,8.17124146e-14 Z M20,0 L20,20 L0,20 L20,0 Z" id="Triangle-1" fill="#000000" sketch:type="MSShapeGroup"></path>
                <path d="M596,0 L616,0 L596,20 L596,0 Z M596,8.17124146e-14 L596,20 L318,20 L318,3.06446431e-14 L596,8.17124146e-14 Z M318,0 L318,20 L298,20 L318,0 Z" id="Triangle-1-Copy" fill="#494949" sketch:type="MSShapeGroup"></path>
                <path d="M888,0 L908,0 L888,20 L888,0 Z M888,8.17124146e-14 L888,20 L610,20 L610,3.06446431e-14 L888,8.17124146e-14 Z M610,0 L610,20 L590,20 L610,0 Z" id="Triangle-1-Copy-2" fill="#BFBFBF" sketch:type="MSShapeGroup"></path>
            </g>
            <g id="Group-Copy-19" sketch:type="MSLayerGroup" transform="translate(288.847813, 600.500000) rotate(-72.000000) translate(-288.847813, -600.500000) translate(-314.152187, 590.500000)">
                <path d="M298,0 L318,0 L298,20 L298,0 Z M298,8.17124146e-14 L298,20 L20,20 L20,3.06446431e-14 L298,8.17124146e-14 Z M20,0 L20,20 L0,20 L20,0 Z" id="Triangle-1" fill="#000000" sketch:type="MSShapeGroup"></path>
                <path d="M596,0 L616,0 L596,20 L596,0 Z M596,8.17124146e-14 L596,20 L318,20 L318,3.06446431e-14 L596,8.17124146e-14 Z M318,0 L318,20 L298,20 L318,0 Z" id="Triangle-1-Copy" fill="#494949" sketch:type="MSShapeGroup"></path>
                <path d="M888,0 L908,0 L888,20 L888,0 Z M888,8.17124146e-14 L888,20 L610,20 L610,3.06446431e-14 L888,8.17124146e-14 Z M610,0 L610,20 L590,20 L610,0 Z" id="Triangle-1-Copy-2" fill="#BFBFBF" sketch:type="MSShapeGroup"></path>
                <path d="M1186,0 L1206,0 L1186,20 L1186,0 Z M1186,8.17124146e-14 L1186,20 L908,20 L908,3.06446431e-14 L1186,8.17124146e-14 Z M908,0 L908,20 L888,20 L908,0 Z" id="Triangle-1-Copy-3" fill="#EAEAEA" sketch:type="MSShapeGroup"></path>
            </g>
            <g id="Group-Copy-18" sketch:type="MSLayerGroup" transform="translate(465.847813, 182.500000) rotate(-72.000000) translate(-465.847813, -182.500000) translate(-137.152187, 172.500000)">
                <path d="M298,0 L318,0 L298,20 L298,0 Z M298,8.17124146e-14 L298,20 L20,20 L20,3.06446431e-14 L298,8.17124146e-14 Z M20,0 L20,20 L0,20 L20,0 Z" id="Triangle-1" fill="#000000" sketch:type="MSShapeGroup"></path>
                <path d="M596,0 L616,0 L596,20 L596,0 Z M596,8.17124146e-14 L596,20 L318,20 L318,3.06446431e-14 L596,8.17124146e-14 Z M318,0 L318,20 L298,20 L318,0 Z" id="Triangle-1-Copy" fill="#494949" sketch:type="MSShapeGroup"></path>
                <path d="M888,0 L908,0 L888,20 L888,0 Z M888,8.17124146e-14 L888,20 L610,20 L610,3.06446431e-14 L888,8.17124146e-14 Z M610,0 L610,20 L590,20 L610,0 Z" id="Triangle-1-Copy-2" fill="#BFBFBF" sketch:type="MSShapeGroup"></path>
            </g>
            <g id="Group-Copy-17" sketch:type="MSLayerGroup" transform="translate(304.847813, 357.500000) rotate(-72.000000) translate(-304.847813, -357.500000) translate(-298.152187, 347.500000)">
                <path d="M298,0 L318,0 L298,20 L298,0 Z M298,8.17124146e-14 L298,20 L20,20 L20,3.06446431e-14 L298,8.17124146e-14 Z M20,0 L20,20 L0,20 L20,0 Z" id="Triangle-1" fill="#000000" sketch:type="MSShapeGroup"></path>
                <path d="M596,0 L616,0 L596,20 L596,0 Z M596,8.17124146e-14 L596,20 L318,20 L318,3.06446431e-14 L596,8.17124146e-14 Z M318,0 L318,20 L298,20 L318,0 Z" id="Triangle-1-Copy" fill="#494949" sketch:type="MSShapeGroup"></path>
                <path d="M888,0 L908,0 L888,20 L888,0 Z M888,8.17124146e-14 L888,20 L610,20 L610,3.06446431e-14 L888,8.17124146e-14 Z M610,0 L610,20 L590,20 L610,0 Z" id="Triangle-1-Copy-2" fill="#BFBFBF" sketch:type="MSShapeGroup"></path>
                <path d="M1186,0 L1206,0 L1186,20 L1186,0 Z M1186,8.17124146e-14 L1186,20 L908,20 L908,3.06446431e-14 L1186,8.17124146e-14 Z M908,0 L908,20 L888,20 L908,0 Z" id="Triangle-1-Copy-3" fill="#EAEAEA" sketch:type="MSShapeGroup"></path>
            </g>
            <g id="Group-Copy-70" sketch:type="MSLayerGroup" transform="translate(210.847813, 710.577249) rotate(-72.000000) translate(-210.847813, -710.577249) translate(-392.152187, 700.577249)">
                <path d="M298,0 L318,0 L298,20 L298,0 Z M298,8.17124146e-14 L298,20 L20,20 L20,3.06446431e-14 L298,8.17124146e-14 Z M20,0 L20,20 L0,20 L20,0 Z" id="Triangle-1" fill="#000000" sketch:type="MSShapeGroup"></path>
                <path d="M596,0 L616,0 L596,20 L596,0 Z M596,8.17124146e-14 L596,20 L318,20 L318,3.06446431e-14 L596,8.17124146e-14 Z M318,0 L318,20 L298,20 L318,0 Z" id="Triangle-1-Copy" fill="#494949" sketch:type="MSShapeGroup"></path>
                <path d="M888,0 L908,0 L888,20 L888,0 Z M888,8.17124146e-14 L888,20 L610,20 L610,3.06446431e-14 L888,8.17124146e-14 Z M610,0 L610,20 L590,20 L610,0 Z" id="Triangle-1-Copy-2" fill="#BFBFBF" sketch:type="MSShapeGroup"></path>
                <path d="M1186,0 L1206,0 L1186,20 L1186,0 Z M1186,8.17124146e-14 L1186,20 L908,20 L908,3.06446431e-14 L1186,8.17124146e-14 Z M908,0 L908,20 L888,20 L908,0 Z" id="Triangle-1-Copy-3" fill="#EAEAEA" sketch:type="MSShapeGroup"></path>
            </g>
            <g id="Group-Copy-24" sketch:type="MSLayerGroup" transform="translate(-68.152187, 1187.500000) rotate(-72.000000) translate(68.152187, -1187.500000) translate(-671.152187, 1177.500000)">
                <path d="M888,0 L908,0 L888,20 L888,0 Z M888,8.17124146e-14 L888,20 L610,20 L610,3.06446431e-14 L888,8.17124146e-14 Z M610,0 L610,20 L590,20 L610,0 Z" id="Triangle-1-Copy-2" fill="#BFBFBF" sketch:type="MSShapeGroup"></path>
                <path d="M1186,0 L1206,0 L1186,20 L1186,0 Z M1186,8.17124146e-14 L1186,20 L908,20 L908,3.06446431e-14 L1186,8.17124146e-14 Z M908,0 L908,20 L888,20 L908,0 Z" id="Triangle-1-Copy-3" fill="#EAEAEA" sketch:type="MSShapeGroup"></path>
            </g>
            <g id="Group-Copy-16" sketch:type="MSLayerGroup" transform="translate(513.847813, -27.500000) rotate(-72.000000) translate(-513.847813, 27.500000) translate(-89.152187, -37.500000)">
                <path d="M298,0 L318,0 L298,20 L298,0 Z M298,8.17124146e-14 L298,20 L20,20 L20,3.06446431e-14 L298,8.17124146e-14 Z M20,0 L20,20 L0,20 L20,0 Z" id="Triangle-1" fill="#000000" sketch:type="MSShapeGroup"></path>
                <path d="M596,0 L616,0 L596,20 L596,0 Z M596,8.17124146e-14 L596,20 L318,20 L318,3.06446431e-14 L596,8.17124146e-14 Z M318,0 L318,20 L298,20 L318,0 Z" id="Triangle-1-Copy" fill="#494949" sketch:type="MSShapeGroup"></path>
            </g>
            <g id="Group-Copy-69" sketch:type="MSLayerGroup" transform="translate(268.152187, 850.500000) rotate(-72.000000) translate(-268.152187, -850.500000) translate(-334.847813, 840.500000)">
                <path d="M596,0 L616,0 L596,20 L596,0 Z M596,8.17124146e-14 L596,20 L318,20 L318,3.06446431e-14 L596,8.17124146e-14 Z M318,0 L318,20 L298,20 L318,0 Z" id="Triangle-1-Copy" fill="#494949" sketch:type="MSShapeGroup"></path>
                <path d="M888,0 L908,0 L888,20 L888,0 Z M888,8.17124146e-14 L888,20 L610,20 L610,3.06446431e-14 L888,8.17124146e-14 Z M610,0 L610,20 L590,20 L610,0 Z" id="Triangle-1-Copy-2" fill="#BFBFBF" sketch:type="MSShapeGroup"></path>
                <path d="M1186,0 L1206,0 L1186,20 L1186,0 Z M1186,8.17124146e-14 L1186,20 L908,20 L908,3.06446431e-14 L1186,8.17124146e-14 Z M908,0 L908,20 L888,20 L908,0 Z" id="Triangle-1-Copy-3" fill="#EAEAEA" sketch:type="MSShapeGroup"></path>
            </g>
            <g id="Group-Copy-68" sketch:type="MSLayerGroup" transform="translate(316.152187, 640.500000) rotate(-72.000000) translate(-316.152187, -640.500000) translate(-286.847813, 630.500000)">
                <path d="M298,0 L318,0 L298,20 L298,0 Z M298,8.17124146e-14 L298,20 L20,20 L20,3.06446431e-14 L298,8.17124146e-14 Z M20,0 L20,20 L0,20 L20,0 Z" id="Triangle-1" fill="#000000" sketch:type="MSShapeGroup"></path>
                <path d="M596,0 L616,0 L596,20 L596,0 Z M596,8.17124146e-14 L596,20 L318,20 L318,3.06446431e-14 L596,8.17124146e-14 Z M318,0 L318,20 L298,20 L318,0 Z" id="Triangle-1-Copy" fill="#494949" sketch:type="MSShapeGroup"></path>
                <path d="M888,0 L908,0 L888,20 L888,0 Z M888,8.17124146e-14 L888,20 L610,20 L610,3.06446431e-14 L888,8.17124146e-14 Z M610,0 L610,20 L590,20 L610,0 Z" id="Triangle-1-Copy-2" fill="#BFBFBF" sketch:type="MSShapeGroup"></path>
                <path d="M1186,0 L1206,0 L1186,20 L1186,0 Z M1186,8.17124146e-14 L1186,20 L908,20 L908,3.06446431e-14 L1186,8.17124146e-14 Z M908,0 L908,20 L888,20 L908,0 Z" id="Triangle-1-Copy-3" fill="#EAEAEA" sketch:type="MSShapeGroup"></path>
            </g>
            <g id="Group-Copy-15" sketch:type="MSLayerGroup" transform="translate(609.847813, -197.500000) rotate(-72.000000) translate(-609.847813, 197.500000) translate(6.847813, -207.500000)">
                <path d="M298,0 L318,0 L298,20 L298,0 Z M298,8.17124146e-14 L298,20 L20,20 L20,3.06446431e-14 L298,8.17124146e-14 Z M20,0 L20,20 L0,20 L20,0 Z" id="Triangle-1" fill="#000000" sketch:type="MSShapeGroup"></path>
                <path d="M596,0 L616,0 L596,20 L596,0 Z M596,8.17124146e-14 L596,20 L318,20 L318,3.06446431e-14 L596,8.17124146e-14 Z M318,0 L318,20 L298,20 L318,0 Z" id="Triangle-1-Copy" fill="#494949" sketch:type="MSShapeGroup"></path>
            </g>
            <g id="Group-Copy-36" sketch:type="MSLayerGroup" transform="translate(-10.000000, 306.000000) rotate(-72.000000) translate(10.000000, -306.000000) translate(-613.000000, 296.000000)">
                <path d="M596,0 L616,0 L596,20 L596,0 Z M596,8.17124146e-14 L596,20 L318,20 L318,3.06446431e-14 L596,8.17124146e-14 Z M318,0 L318,20 L298,20 L318,0 Z" id="Triangle-1-Copy" fill="#494949" sketch:type="MSShapeGroup"></path>
                <path d="M888,0 L908,0 L888,20 L888,0 Z M888,8.17124146e-14 L888,20 L610,20 L610,3.06446431e-14 L888,8.17124146e-14 Z M610,0 L610,20 L590,20 L610,0 Z" id="Triangle-1-Copy-2" fill="#BFBFBF" sketch:type="MSShapeGroup"></path>
                <path d="M1186,0 L1206,0 L1186,20 L1186,0 Z M1186,8.17124146e-14 L1186,20 L908,20 L908,3.06446431e-14 L1186,8.17124146e-14 Z M908,0 L908,20 L888,20 L908,0 Z" id="Triangle-1-Copy-3" fill="#EAEAEA" sketch:type="MSShapeGroup"></path>
            </g>
            <g id="Group-Copy-35" sketch:type="MSLayerGroup" transform="translate(149.000000, 75.000000) rotate(-72.000000) translate(-149.000000, -75.000000) translate(-454.000000, 65.000000)">
                <path d="M298,0 L318,0 L298,20 L298,0 Z M298,8.17124146e-14 L298,20 L20,20 L20,3.06446431e-14 L298,8.17124146e-14 Z M20,0 L20,20 L0,20 L20,0 Z" id="Triangle-1" fill="#000000" sketch:type="MSShapeGroup"></path>
                <path d="M596,0 L616,0 L596,20 L596,0 Z M596,8.17124146e-14 L596,20 L318,20 L318,3.06446431e-14 L596,8.17124146e-14 Z M318,0 L318,20 L298,20 L318,0 Z" id="Triangle-1-Copy" fill="#494949" sketch:type="MSShapeGroup"></path>
                <path d="M888,0 L908,0 L888,20 L888,0 Z M888,8.17124146e-14 L888,20 L610,20 L610,3.06446431e-14 L888,8.17124146e-14 Z M610,0 L610,20 L590,20 L610,0 Z" id="Triangle-1-Copy-2" fill="#BFBFBF" sketch:type="MSShapeGroup"></path>
            </g>
            <g id="Group-Copy-34" sketch:type="MSLayerGroup" transform="translate(26.000000, 517.000000) rotate(-72.000000) translate(-26.000000, -517.000000) translate(-577.000000, 507.000000)">
                <path d="M596,0 L616,0 L596,20 L596,0 Z M596,8.17124146e-14 L596,20 L318,20 L318,3.06446431e-14 L596,8.17124146e-14 Z M318,0 L318,20 L298,20 L318,0 Z" id="Triangle-1-Copy" fill="#494949" sketch:type="MSShapeGroup"></path>
                <path d="M888,0 L908,0 L888,20 L888,0 Z M888,8.17124146e-14 L888,20 L610,20 L610,3.06446431e-14 L888,8.17124146e-14 Z M610,0 L610,20 L590,20 L610,0 Z" id="Triangle-1-Copy-2" fill="#BFBFBF" sketch:type="MSShapeGroup"></path>
                <path d="M1186,0 L1206,0 L1186,20 L1186,0 Z M1186,8.17124146e-14 L1186,20 L908,20 L908,3.06446431e-14 L1186,8.17124146e-14 Z M908,0 L908,20 L888,20 L908,0 Z" id="Triangle-1-Copy-3" fill="#EAEAEA" sketch:type="MSShapeGroup"></path>
            </g>
            <g id="Group-Copy-33" sketch:type="MSLayerGroup" transform="translate(203.000000, 99.000000) rotate(-72.000000) translate(-203.000000, -99.000000) translate(-400.000000, 89.000000)">
                <path d="M298,0 L318,0 L298,20 L298,0 Z M298,8.17124146e-14 L298,20 L20,20 L20,3.06446431e-14 L298,8.17124146e-14 Z M20,0 L20,20 L0,20 L20,0 Z" id="Triangle-1" fill="#000000" sketch:type="MSShapeGroup"></path>
                <path d="M596,0 L616,0 L596,20 L596,0 Z M596,8.17124146e-14 L596,20 L318,20 L318,3.06446431e-14 L596,8.17124146e-14 Z M318,0 L318,20 L298,20 L318,0 Z" id="Triangle-1-Copy" fill="#494949" sketch:type="MSShapeGroup"></path>
                <path d="M888,0 L908,0 L888,20 L888,0 Z M888,8.17124146e-14 L888,20 L610,20 L610,3.06446431e-14 L888,8.17124146e-14 Z M610,0 L610,20 L590,20 L610,0 Z" id="Triangle-1-Copy-2" fill="#BFBFBF" sketch:type="MSShapeGroup"></path>
            </g>
            <g id="Group-Copy-31" sketch:type="MSLayerGroup" transform="translate(42.000000, 274.000000) rotate(-72.000000) translate(-42.000000, -274.000000) translate(-561.000000, 264.000000)">
                <path d="M596,0 L616,0 L596,20 L596,0 Z M596,8.17124146e-14 L596,20 L318,20 L318,3.06446431e-14 L596,8.17124146e-14 Z M318,0 L318,20 L298,20 L318,0 Z" id="Triangle-1-Copy" fill="#494949" sketch:type="MSShapeGroup"></path>
                <path d="M888,0 L908,0 L888,20 L888,0 Z M888,8.17124146e-14 L888,20 L610,20 L610,3.06446431e-14 L888,8.17124146e-14 Z M610,0 L610,20 L590,20 L610,0 Z" id="Triangle-1-Copy-2" fill="#BFBFBF" sketch:type="MSShapeGroup"></path>
                <path d="M1186,0 L1206,0 L1186,20 L1186,0 Z M1186,8.17124146e-14 L1186,20 L908,20 L908,3.06446431e-14 L1186,8.17124146e-14 Z M908,0 L908,20 L888,20 L908,0 Z" id="Triangle-1-Copy-3" fill="#EAEAEA" sketch:type="MSShapeGroup"></path>
            </g>
            <g id="Group-Copy-14" sketch:type="MSLayerGroup" transform="translate(408.847813, -27.500000) rotate(-72.000000) translate(-408.847813, 27.500000) translate(-194.152187, -37.500000)">
                <path d="M298,0 L318,0 L298,20 L298,0 Z M298,8.17124146e-14 L298,20 L20,20 L20,3.06446431e-14 L298,8.17124146e-14 Z M20,0 L20,20 L0,20 L20,0 Z" id="Triangle-1" fill="#000000" sketch:type="MSShapeGroup"></path>
                <path d="M596,0 L616,0 L596,20 L596,0 Z M596,8.17124146e-14 L596,20 L318,20 L318,3.06446431e-14 L596,8.17124146e-14 Z M318,0 L318,20 L298,20 L318,0 Z" id="Triangle-1-Copy" fill="#494949" sketch:type="MSShapeGroup"></path>
            </g>
            <g id="Group-Copy-32" sketch:type="MSLayerGroup" transform="translate(286.000000, -411.000000) rotate(-72.000000) translate(-286.000000, 411.000000) translate(-317.000000, -421.000000)" fill="#000000">
                <path d="M298,0 L318,0 L298,20 L298,0 Z M298,8.17124146e-14 L298,20 L20,20 L20,3.06446431e-14 L298,8.17124146e-14 Z M20,0 L20,20 L0,20 L20,0 Z" id="Triangle-1" sketch:type="MSShapeGroup"></path>
            </g>
            <g id="Group-Copy-30" sketch:type="MSLayerGroup" transform="translate(251.000000, -111.000000) rotate(-72.000000) translate(-251.000000, 111.000000) translate(-352.000000, -121.000000)">
                <path d="M298,0 L318,0 L298,20 L298,0 Z M298,8.17124146e-14 L298,20 L20,20 L20,3.06446431e-14 L298,8.17124146e-14 Z M20,0 L20,20 L0,20 L20,0 Z" id="Triangle-1" fill="#000000" sketch:type="MSShapeGroup"></path>
                <path d="M596,0 L616,0 L596,20 L596,0 Z M596,8.17124146e-14 L596,20 L318,20 L318,3.06446431e-14 L596,8.17124146e-14 Z M318,0 L318,20 L298,20 L318,0 Z" id="Triangle-1-Copy" fill="#494949" sketch:type="MSShapeGroup"></path>
            </g>
            <g id="Group-Copy-29" sketch:type="MSLayerGroup" transform="translate(347.000000, -281.000000) rotate(-72.000000) translate(-347.000000, 281.000000) translate(-256.000000, -291.000000)">
                <path d="M298,0 L318,0 L298,20 L298,0 Z M298,8.17124146e-14 L298,20 L20,20 L20,3.06446431e-14 L298,8.17124146e-14 Z M20,0 L20,20 L0,20 L20,0 Z" id="Triangle-1" fill="#000000" sketch:type="MSShapeGroup"></path>
                <path d="M596,0 L616,0 L596,20 L596,0 Z M596,8.17124146e-14 L596,20 L318,20 L318,3.06446431e-14 L596,8.17124146e-14 Z M318,0 L318,20 L298,20 L318,0 Z" id="Triangle-1-Copy" fill="#494949" sketch:type="MSShapeGroup"></path>
            </g>
            <g id="Group-Copy-28" sketch:type="MSLayerGroup" transform="translate(146.000000, -111.000000) rotate(-72.000000) translate(-146.000000, 111.000000) translate(-457.000000, -121.000000)">
                <path d="M298,0 L318,0 L298,20 L298,0 Z M298,8.17124146e-14 L298,20 L20,20 L20,3.06446431e-14 L298,8.17124146e-14 Z M20,0 L20,20 L0,20 L20,0 Z" id="Triangle-1" fill="#000000" sketch:type="MSShapeGroup"></path>
                <path d="M596,0 L616,0 L596,20 L596,0 Z M596,8.17124146e-14 L596,20 L318,20 L318,3.06446431e-14 L596,8.17124146e-14 Z M318,0 L318,20 L298,20 L318,0 Z" id="Triangle-1-Copy" fill="#494949" sketch:type="MSShapeGroup"></path>
            </g>
            <g id="Group-Copy-27" sketch:type="MSLayerGroup" transform="translate(19.000000, -165.000000) rotate(-72.000000) translate(-19.000000, 165.000000) translate(-584.000000, -175.000000)" fill="#494949">
                <path d="M596,0 L616,0 L596,20 L596,0 Z M596,8.17124146e-14 L596,20 L318,20 L318,3.06446431e-14 L596,8.17124146e-14 Z M318,0 L318,20 L298,20 L318,0 Z" id="Triangle-1-Copy" sketch:type="MSShapeGroup"></path>
            </g>
            <g id="Group-Copy-88" sketch:type="MSLayerGroup" transform="translate(191.847813, 259.500000) rotate(-72.000000) translate(-191.847813, -259.500000) translate(-411.152187, 249.500000)">
                <path d="M298,0 L318,0 L298,20 L298,0 Z M298,8.17124146e-14 L298,20 L20,20 L20,3.06446431e-14 L298,8.17124146e-14 Z M20,0 L20,20 L0,20 L20,0 Z" id="Triangle-1" fill="#000000" sketch:type="MSShapeGroup"></path>
                <path d="M596,0 L616,0 L596,20 L596,0 Z M596,8.17124146e-14 L596,20 L318,20 L318,3.06446431e-14 L596,8.17124146e-14 Z M318,0 L318,20 L298,20 L318,0 Z" id="Triangle-1-Copy" fill="#494949" sketch:type="MSShapeGroup"></path>
                <path d="M888,0 L908,0 L888,20 L888,0 Z M888,8.17124146e-14 L888,20 L610,20 L610,3.06446431e-14 L888,8.17124146e-14 Z M610,0 L610,20 L590,20 L610,0 Z" id="Triangle-1-Copy-2" fill="#BFBFBF" sketch:type="MSShapeGroup"></path>
            </g>
            <g id="Group-Copy-87" sketch:type="MSLayerGroup" transform="translate(156.847813, 559.500000) rotate(-72.000000) translate(-156.847813, -559.500000) translate(-446.152187, 549.500000)">
                <path d="M298,0 L318,0 L298,20 L298,0 Z M298,8.17124146e-14 L298,20 L20,20 L20,3.06446431e-14 L298,8.17124146e-14 Z M20,0 L20,20 L0,20 L20,0 Z" id="Triangle-1" fill="#000000" sketch:type="MSShapeGroup"></path>
                <path d="M596,0 L616,0 L596,20 L596,0 Z M596,8.17124146e-14 L596,20 L318,20 L318,3.06446431e-14 L596,8.17124146e-14 Z M318,0 L318,20 L298,20 L318,0 Z" id="Triangle-1-Copy" fill="#494949" sketch:type="MSShapeGroup"></path>
                <path d="M888,0 L908,0 L888,20 L888,0 Z M888,8.17124146e-14 L888,20 L610,20 L610,3.06446431e-14 L888,8.17124146e-14 Z M610,0 L610,20 L590,20 L610,0 Z" id="Triangle-1-Copy-2" fill="#BFBFBF" sketch:type="MSShapeGroup"></path>
                <path d="M1186,0 L1206,0 L1186,20 L1186,0 Z M1186,8.17124146e-14 L1186,20 L908,20 L908,3.06446431e-14 L1186,8.17124146e-14 Z M908,0 L908,20 L888,20 L908,0 Z" id="Triangle-1-Copy-3" fill="#EAEAEA" sketch:type="MSShapeGroup"></path>
            </g>
            <g id="Group-Copy-86" sketch:type="MSLayerGroup" transform="translate(252.847813, 389.500000) rotate(-72.000000) translate(-252.847813, -389.500000) translate(-350.152187, 379.500000)">
                <path d="M298,0 L318,0 L298,20 L298,0 Z M298,8.17124146e-14 L298,20 L20,20 L20,3.06446431e-14 L298,8.17124146e-14 Z M20,0 L20,20 L0,20 L20,0 Z" id="Triangle-1" fill="#000000" sketch:type="MSShapeGroup"></path>
                <path d="M596,0 L616,0 L596,20 L596,0 Z M596,8.17124146e-14 L596,20 L318,20 L318,3.06446431e-14 L596,8.17124146e-14 Z M318,0 L318,20 L298,20 L318,0 Z" id="Triangle-1-Copy" fill="#494949" sketch:type="MSShapeGroup"></path>
                <path d="M888,0 L908,0 L888,20 L888,0 Z M888,8.17124146e-14 L888,20 L610,20 L610,3.06446431e-14 L888,8.17124146e-14 Z M610,0 L610,20 L590,20 L610,0 Z" id="Triangle-1-Copy-2" fill="#BFBFBF" sketch:type="MSShapeGroup"></path>
                <path d="M1186,0 L1206,0 L1186,20 L1186,0 Z M1186,8.17124146e-14 L1186,20 L908,20 L908,3.06446431e-14 L1186,8.17124146e-14 Z M908,0 L908,20 L888,20 L908,0 Z" id="Triangle-1-Copy-3" fill="#EAEAEA" sketch:type="MSShapeGroup"></path>
            </g>
            <g id="Group-Copy-85" sketch:type="MSLayerGroup" transform="translate(288.847813, 600.500000) rotate(-72.000000) translate(-288.847813, -600.500000) translate(-314.152187, 590.500000)">
                <path d="M298,0 L318,0 L298,20 L298,0 Z M298,8.17124146e-14 L298,20 L20,20 L20,3.06446431e-14 L298,8.17124146e-14 Z M20,0 L20,20 L0,20 L20,0 Z" id="Triangle-1" fill="#000000" sketch:type="MSShapeGroup"></path>
                <path d="M596,0 L616,0 L596,20 L596,0 Z M596,8.17124146e-14 L596,20 L318,20 L318,3.06446431e-14 L596,8.17124146e-14 Z M318,0 L318,20 L298,20 L318,0 Z" id="Triangle-1-Copy" fill="#494949" sketch:type="MSShapeGroup"></path>
                <path d="M888,0 L908,0 L888,20 L888,0 Z M888,8.17124146e-14 L888,20 L610,20 L610,3.06446431e-14 L888,8.17124146e-14 Z M610,0 L610,20 L590,20 L610,0 Z" id="Triangle-1-Copy-2" fill="#BFBFBF" sketch:type="MSShapeGroup"></path>
                <path d="M1186,0 L1206,0 L1186,20 L1186,0 Z M1186,8.17124146e-14 L1186,20 L908,20 L908,3.06446431e-14 L1186,8.17124146e-14 Z M908,0 L908,20 L888,20 L908,0 Z" id="Triangle-1-Copy-3" fill="#EAEAEA" sketch:type="MSShapeGroup"></path>
            </g>
            <g id="Group-Copy-84" sketch:type="MSLayerGroup" transform="translate(304.847813, 357.500000) rotate(-72.000000) translate(-304.847813, -357.500000) translate(-298.152187, 347.500000)">
                <path d="M298,0 L318,0 L298,20 L298,0 Z M298,8.17124146e-14 L298,20 L20,20 L20,3.06446431e-14 L298,8.17124146e-14 Z M20,0 L20,20 L0,20 L20,0 Z" id="Triangle-1" fill="#000000" sketch:type="MSShapeGroup"></path>
                <path d="M596,0 L616,0 L596,20 L596,0 Z M596,8.17124146e-14 L596,20 L318,20 L318,3.06446431e-14 L596,8.17124146e-14 Z M318,0 L318,20 L298,20 L318,0 Z" id="Triangle-1-Copy" fill="#494949" sketch:type="MSShapeGroup"></path>
                <path d="M888,0 L908,0 L888,20 L888,0 Z M888,8.17124146e-14 L888,20 L610,20 L610,3.06446431e-14 L888,8.17124146e-14 Z M610,0 L610,20 L590,20 L610,0 Z" id="Triangle-1-Copy-2" fill="#BFBFBF" sketch:type="MSShapeGroup"></path>
                <path d="M1186,0 L1206,0 L1186,20 L1186,0 Z M1186,8.17124146e-14 L1186,20 L908,20 L908,3.06446431e-14 L1186,8.17124146e-14 Z M908,0 L908,20 L888,20 L908,0 Z" id="Triangle-1-Copy-3" fill="#EAEAEA" sketch:type="MSShapeGroup"></path>
            </g>
            <g id="Group-Copy-83" sketch:type="MSLayerGroup" transform="translate(-10.000000, 306.000000) rotate(-72.000000) translate(10.000000, -306.000000) translate(-613.000000, 296.000000)">
                <path d="M596,0 L616,0 L596,20 L596,0 Z M596,8.17124146e-14 L596,20 L318,20 L318,3.06446431e-14 L596,8.17124146e-14 Z M318,0 L318,20 L298,20 L318,0 Z" id="Triangle-1-Copy" fill="#494949" sketch:type="MSShapeGroup"></path>
                <path d="M888,0 L908,0 L888,20 L888,0 Z M888,8.17124146e-14 L888,20 L610,20 L610,3.06446431e-14 L888,8.17124146e-14 Z M610,0 L610,20 L590,20 L610,0 Z" id="Triangle-1-Copy-2" fill="#BFBFBF" sketch:type="MSShapeGroup"></path>
                <path d="M1186,0 L1206,0 L1186,20 L1186,0 Z M1186,8.17124146e-14 L1186,20 L908,20 L908,3.06446431e-14 L1186,8.17124146e-14 Z M908,0 L908,20 L888,20 L908,0 Z" id="Triangle-1-Copy-3" fill="#EAEAEA" sketch:type="MSShapeGroup"></path>
            </g>
            <g id="Group-Copy-82" sketch:type="MSLayerGroup" transform="translate(149.000000, 75.000000) rotate(-72.000000) translate(-149.000000, -75.000000) translate(-454.000000, 65.000000)">
                <path d="M298,0 L318,0 L298,20 L298,0 Z M298,8.17124146e-14 L298,20 L20,20 L20,3.06446431e-14 L298,8.17124146e-14 Z M20,0 L20,20 L0,20 L20,0 Z" id="Triangle-1" fill="#000000" sketch:type="MSShapeGroup"></path>
                <path d="M596,0 L616,0 L596,20 L596,0 Z M596,8.17124146e-14 L596,20 L318,20 L318,3.06446431e-14 L596,8.17124146e-14 Z M318,0 L318,20 L298,20 L318,0 Z" id="Triangle-1-Copy" fill="#494949" sketch:type="MSShapeGroup"></path>
                <path d="M888,0 L908,0 L888,20 L888,0 Z M888,8.17124146e-14 L888,20 L610,20 L610,3.06446431e-14 L888,8.17124146e-14 Z M610,0 L610,20 L590,20 L610,0 Z" id="Triangle-1-Copy-2" fill="#BFBFBF" sketch:type="MSShapeGroup"></path>
            </g>
            <g id="Group-Copy-81" sketch:type="MSLayerGroup" transform="translate(26.000000, 517.000000) rotate(-72.000000) translate(-26.000000, -517.000000) translate(-577.000000, 507.000000)">
                <path d="M596,0 L616,0 L596,20 L596,0 Z M596,8.17124146e-14 L596,20 L318,20 L318,3.06446431e-14 L596,8.17124146e-14 Z M318,0 L318,20 L298,20 L318,0 Z" id="Triangle-1-Copy" fill="#494949" sketch:type="MSShapeGroup"></path>
                <path d="M888,0 L908,0 L888,20 L888,0 Z M888,8.17124146e-14 L888,20 L610,20 L610,3.06446431e-14 L888,8.17124146e-14 Z M610,0 L610,20 L590,20 L610,0 Z" id="Triangle-1-Copy-2" fill="#BFBFBF" sketch:type="MSShapeGroup"></path>
                <path d="M1186,0 L1206,0 L1186,20 L1186,0 Z M1186,8.17124146e-14 L1186,20 L908,20 L908,3.06446431e-14 L1186,8.17124146e-14 Z M908,0 L908,20 L888,20 L908,0 Z" id="Triangle-1-Copy-3" fill="#EAEAEA" sketch:type="MSShapeGroup"></path>
            </g>
            <g id="Group-Copy-80" sketch:type="MSLayerGroup" transform="translate(203.000000, 99.000000) rotate(-72.000000) translate(-203.000000, -99.000000) translate(-400.000000, 89.000000)">
                <path d="M298,0 L318,0 L298,20 L298,0 Z M298,8.17124146e-14 L298,20 L20,20 L20,3.06446431e-14 L298,8.17124146e-14 Z M20,0 L20,20 L0,20 L20,0 Z" id="Triangle-1" fill="#000000" sketch:type="MSShapeGroup"></path>
                <path d="M596,0 L616,0 L596,20 L596,0 Z M596,8.17124146e-14 L596,20 L318,20 L318,3.06446431e-14 L596,8.17124146e-14 Z M318,0 L318,20 L298,20 L318,0 Z" id="Triangle-1-Copy" fill="#494949" sketch:type="MSShapeGroup"></path>
                <path d="M888,0 L908,0 L888,20 L888,0 Z M888,8.17124146e-14 L888,20 L610,20 L610,3.06446431e-14 L888,8.17124146e-14 Z M610,0 L610,20 L590,20 L610,0 Z" id="Triangle-1-Copy-2" fill="#BFBFBF" sketch:type="MSShapeGroup"></path>
            </g>
            <g id="Group-Copy-79" sketch:type="MSLayerGroup" transform="translate(42.000000, 274.000000) rotate(-72.000000) translate(-42.000000, -274.000000) translate(-561.000000, 264.000000)">
                <path d="M596,0 L616,0 L596,20 L596,0 Z M596,8.17124146e-14 L596,20 L318,20 L318,3.06446431e-14 L596,8.17124146e-14 Z M318,0 L318,20 L298,20 L318,0 Z" id="Triangle-1-Copy" fill="#494949" sketch:type="MSShapeGroup"></path>
                <path d="M888,0 L908,0 L888,20 L888,0 Z M888,8.17124146e-14 L888,20 L610,20 L610,3.06446431e-14 L888,8.17124146e-14 Z M610,0 L610,20 L590,20 L610,0 Z" id="Triangle-1-Copy-2" fill="#BFBFBF" sketch:type="MSShapeGroup"></path>
                <path d="M1186,0 L1206,0 L1186,20 L1186,0 Z M1186,8.17124146e-14 L1186,20 L908,20 L908,3.06446431e-14 L1186,8.17124146e-14 Z M908,0 L908,20 L888,20 L908,0 Z" id="Triangle-1-Copy-3" fill="#EAEAEA" sketch:type="MSShapeGroup"></path>
            </g>
            <g id="Group-Copy-78" sketch:type="MSLayerGroup" transform="translate(286.000000, -411.000000) rotate(-72.000000) translate(-286.000000, 411.000000) translate(-317.000000, -421.000000)" fill="#000000">
                <path d="M298,0 L318,0 L298,20 L298,0 Z M298,8.17124146e-14 L298,20 L20,20 L20,3.06446431e-14 L298,8.17124146e-14 Z M20,0 L20,20 L0,20 L20,0 Z" id="Triangle-1" sketch:type="MSShapeGroup"></path>
            </g>
            <g id="Group-Copy-77" sketch:type="MSLayerGroup" transform="translate(251.000000, -111.000000) rotate(-72.000000) translate(-251.000000, 111.000000) translate(-352.000000, -121.000000)">
                <path d="M298,0 L318,0 L298,20 L298,0 Z M298,8.17124146e-14 L298,20 L20,20 L20,3.06446431e-14 L298,8.17124146e-14 Z M20,0 L20,20 L0,20 L20,0 Z" id="Triangle-1" fill="#000000" sketch:type="MSShapeGroup"></path>
                <path d="M596,0 L616,0 L596,20 L596,0 Z M596,8.17124146e-14 L596,20 L318,20 L318,3.06446431e-14 L596,8.17124146e-14 Z M318,0 L318,20 L298,20 L318,0 Z" id="Triangle-1-Copy" fill="#494949" sketch:type="MSShapeGroup"></path>
            </g>
            <g id="Group-Copy-76" sketch:type="MSLayerGroup" transform="translate(146.000000, -111.000000) rotate(-72.000000) translate(-146.000000, 111.000000) translate(-457.000000, -121.000000)">
                <path d="M298,0 L318,0 L298,20 L298,0 Z M298,8.17124146e-14 L298,20 L20,20 L20,3.06446431e-14 L298,8.17124146e-14 Z M20,0 L20,20 L0,20 L20,0 Z" id="Triangle-1" fill="#000000" sketch:type="MSShapeGroup"></path>
                <path d="M596,0 L616,0 L596,20 L596,0 Z M596,8.17124146e-14 L596,20 L318,20 L318,3.06446431e-14 L596,8.17124146e-14 Z M318,0 L318,20 L298,20 L318,0 Z" id="Triangle-1-Copy" fill="#494949" sketch:type="MSShapeGroup"></path>
            </g>
            <g id="Group-Copy-38" sketch:type="MSLayerGroup" transform="translate(19.000000, -165.000000) rotate(-72.000000) translate(-19.000000, 165.000000) translate(-584.000000, -175.000000)" fill="#494949">
                <path d="M596,0 L616,0 L596,20 L596,0 Z M596,8.17124146e-14 L596,20 L318,20 L318,3.06446431e-14 L596,8.17124146e-14 Z M318,0 L318,20 L298,20 L318,0 Z" id="Triangle-1-Copy" sketch:type="MSShapeGroup"></path>
            </g>
            <g id="Group-Copy-66" sketch:type="MSLayerGroup" transform="translate(1169.000000, 505.422751) rotate(-72.000000) translate(-1169.000000, -505.422751) translate(566.000000, 495.422751)" fill="#000000">
                <path d="M298,0 L318,0 L298,20 L298,0 Z M298,8.17124146e-14 L298,20 L20,20 L20,3.06446431e-14 L298,8.17124146e-14 Z M20,0 L20,20 L0,20 L20,0 Z" id="Triangle-1" sketch:type="MSShapeGroup"></path>
            </g>
            <g id="Group-Copy-65" sketch:type="MSLayerGroup" transform="translate(1032.000000, 991.422751) rotate(-72.000000) translate(-1032.000000, -991.422751) translate(429.000000, 981.422751)">
                <path d="M596,0 L616,0 L596,20 L596,0 Z M596,8.17124146e-14 L596,20 L318,20 L318,3.06446431e-14 L596,8.17124146e-14 Z M318,0 L318,20 L298,20 L318,0 Z" id="Triangle-1-Copy" fill="#494949" sketch:type="MSShapeGroup"></path>
                <path d="M888,0 L908,0 L888,20 L888,0 Z M888,8.17124146e-14 L888,20 L610,20 L610,3.06446431e-14 L888,8.17124146e-14 Z M610,0 L610,20 L590,20 L610,0 Z" id="Triangle-1-Copy-2" fill="#BFBFBF" sketch:type="MSShapeGroup"></path>
            </g>
            <g id="Group-Copy-64" sketch:type="MSLayerGroup" transform="translate(1134.000000, 805.422751) rotate(-72.000000) translate(-1134.000000, -805.422751) translate(531.000000, 795.422751)" fill="#494949">
                <path d="M596,0 L616,0 L596,20 L596,0 Z M596,8.17124146e-14 L596,20 L318,20 L318,3.06446431e-14 L596,8.17124146e-14 Z M318,0 L318,20 L298,20 L318,0 Z" id="Triangle-1-Copy" sketch:type="MSShapeGroup"></path>
            </g>
            <g id="Group-Copy-62" sketch:type="MSLayerGroup" transform="translate(1230.000000, 635.422751) rotate(-72.000000) translate(-1230.000000, -635.422751) translate(627.000000, 625.422751)" fill="#000000">
                <path d="M298,0 L318,0 L298,20 L298,0 Z M298,8.17124146e-14 L298,20 L20,20 L20,3.06446431e-14 L298,8.17124146e-14 Z M20,0 L20,20 L0,20 L20,0 Z" id="Triangle-1" sketch:type="MSShapeGroup"></path>
            </g>
            <g id="Group-Copy-59" sketch:type="MSLayerGroup" transform="translate(841.000000, 620.422751) rotate(-72.000000) translate(-841.000000, -620.422751) translate(238.000000, 610.422751)">
                <path d="M298,0 L318,0 L298,20 L298,0 Z M298,8.17124146e-14 L298,20 L20,20 L20,3.06446431e-14 L298,8.17124146e-14 Z M20,0 L20,20 L0,20 L20,0 Z" id="Triangle-1" fill="#000000" sketch:type="MSShapeGroup"></path>
                <path d="M596,0 L616,0 L596,20 L596,0 Z M596,8.17124146e-14 L596,20 L318,20 L318,3.06446431e-14 L596,8.17124146e-14 Z M318,0 L318,20 L298,20 L318,0 Z" id="Triangle-1-Copy" fill="#494949" sketch:type="MSShapeGroup"></path>
                <path d="M888,0 L908,0 L888,20 L888,0 Z M888,8.17124146e-14 L888,20 L610,20 L610,3.06446431e-14 L888,8.17124146e-14 Z M610,0 L610,20 L590,20 L610,0 Z" id="Triangle-1-Copy-2" fill="#BFBFBF" sketch:type="MSShapeGroup"></path>
                <path d="M1186,0 L1206,0 L1186,20 L1186,0 Z M1186,8.17124146e-14 L1186,20 L908,20 L908,3.06446431e-14 L1186,8.17124146e-14 Z M908,0 L908,20 L888,20 L908,0 Z" id="Triangle-1-Copy-3" fill="#EAEAEA" sketch:type="MSShapeGroup"></path>
            </g>
            <g id="Group-Copy-57" sketch:type="MSLayerGroup" transform="translate(806.000000, 920.422751) rotate(-72.000000) translate(-806.000000, -920.422751) translate(203.000000, 910.422751)">
                <path d="M596,0 L616,0 L596,20 L596,0 Z M596,8.17124146e-14 L596,20 L318,20 L318,3.06446431e-14 L596,8.17124146e-14 Z M318,0 L318,20 L298,20 L318,0 Z" id="Triangle-1-Copy" fill="#494949" sketch:type="MSShapeGroup"></path>
                <path d="M888,0 L908,0 L888,20 L888,0 Z M888,8.17124146e-14 L888,20 L610,20 L610,3.06446431e-14 L888,8.17124146e-14 Z M610,0 L610,20 L590,20 L610,0 Z" id="Triangle-1-Copy-2" fill="#BFBFBF" sketch:type="MSShapeGroup"></path>
                <path d="M1186,0 L1206,0 L1186,20 L1186,0 Z M1186,8.17124146e-14 L1186,20 L908,20 L908,3.06446431e-14 L1186,8.17124146e-14 Z M908,0 L908,20 L888,20 L908,0 Z" id="Triangle-1-Copy-3" fill="#EAEAEA" sketch:type="MSShapeGroup"></path>
            </g>
            <g id="Group-Copy-55" sketch:type="MSLayerGroup" transform="translate(902.000000, 750.422751) rotate(-72.000000) translate(-902.000000, -750.422751) translate(299.000000, 740.422751)">
                <path d="M596,0 L616,0 L596,20 L596,0 Z M596,8.17124146e-14 L596,20 L318,20 L318,3.06446431e-14 L596,8.17124146e-14 Z M318,0 L318,20 L298,20 L318,0 Z" id="Triangle-1-Copy" fill="#494949" sketch:type="MSShapeGroup"></path>
                <path d="M888,0 L908,0 L888,20 L888,0 Z M888,8.17124146e-14 L888,20 L610,20 L610,3.06446431e-14 L888,8.17124146e-14 Z M610,0 L610,20 L590,20 L610,0 Z" id="Triangle-1-Copy-2" fill="#BFBFBF" sketch:type="MSShapeGroup"></path>
                <path d="M1186,0 L1206,0 L1186,20 L1186,0 Z M1186,8.17124146e-14 L1186,20 L908,20 L908,3.06446431e-14 L1186,8.17124146e-14 Z M908,0 L908,20 L888,20 L908,0 Z" id="Triangle-1-Copy-3" fill="#EAEAEA" sketch:type="MSShapeGroup"></path>
            </g>
            <g id="Group-Copy-54" sketch:type="MSLayerGroup" transform="translate(1061.000000, 519.422751) rotate(-72.000000) translate(-1061.000000, -519.422751) translate(458.000000, 509.422751)">
                <path d="M298,0 L318,0 L298,20 L298,0 Z M298,8.17124146e-14 L298,20 L20,20 L20,3.06446431e-14 L298,8.17124146e-14 Z M20,0 L20,20 L0,20 L20,0 Z" id="Triangle-1" fill="#000000" sketch:type="MSShapeGroup"></path>
                <path d="M596,0 L616,0 L596,20 L596,0 Z M596,8.17124146e-14 L596,20 L318,20 L318,3.06446431e-14 L596,8.17124146e-14 Z M318,0 L318,20 L298,20 L318,0 Z" id="Triangle-1-Copy" fill="#494949" sketch:type="MSShapeGroup"></path>
            </g>
            <g id="Group-Copy-53" sketch:type="MSLayerGroup" transform="translate(938.000000, 961.422751) rotate(-72.000000) translate(-938.000000, -961.422751) translate(335.000000, 951.422751)">
                <path d="M596,0 L616,0 L596,20 L596,0 Z M596,8.17124146e-14 L596,20 L318,20 L318,3.06446431e-14 L596,8.17124146e-14 Z M318,0 L318,20 L298,20 L318,0 Z" id="Triangle-1-Copy" fill="#494949" sketch:type="MSShapeGroup"></path>
                <path d="M888,0 L908,0 L888,20 L888,0 Z M888,8.17124146e-14 L888,20 L610,20 L610,3.06446431e-14 L888,8.17124146e-14 Z M610,0 L610,20 L590,20 L610,0 Z" id="Triangle-1-Copy-2" fill="#BFBFBF" sketch:type="MSShapeGroup"></path>
                <path d="M1186,0 L1206,0 L1186,20 L1186,0 Z M1186,8.17124146e-14 L1186,20 L908,20 L908,3.06446431e-14 L1186,8.17124146e-14 Z M908,0 L908,20 L888,20 L908,0 Z" id="Triangle-1-Copy-3" fill="#EAEAEA" sketch:type="MSShapeGroup"></path>
            </g>
            <g id="Group-Copy-52" sketch:type="MSLayerGroup" transform="translate(1115.000000, 543.422751) rotate(-72.000000) translate(-1115.000000, -543.422751) translate(512.000000, 533.422751)">
                <path d="M298,0 L318,0 L298,20 L298,0 Z M298,8.17124146e-14 L298,20 L20,20 L20,3.06446431e-14 L298,8.17124146e-14 Z M20,0 L20,20 L0,20 L20,0 Z" id="Triangle-1" fill="#000000" sketch:type="MSShapeGroup"></path>
                <path d="M596,0 L616,0 L596,20 L596,0 Z M596,8.17124146e-14 L596,20 L318,20 L318,3.06446431e-14 L596,8.17124146e-14 Z M318,0 L318,20 L298,20 L318,0 Z" id="Triangle-1-Copy" fill="#494949" sketch:type="MSShapeGroup"></path>
            </g>
            <g id="Group-Copy-51" sketch:type="MSLayerGroup" transform="translate(954.000000, 718.422751) rotate(-72.000000) translate(-954.000000, -718.422751) translate(351.000000, 708.422751)">
                <path d="M298,0 L318,0 L298,20 L298,0 Z M298,8.17124146e-14 L298,20 L20,20 L20,3.06446431e-14 L298,8.17124146e-14 Z M20,0 L20,20 L0,20 L20,0 Z" id="Triangle-1" fill="#000000" sketch:type="MSShapeGroup"></path>
                <path d="M596,0 L616,0 L596,20 L596,0 Z M596,8.17124146e-14 L596,20 L318,20 L318,3.06446431e-14 L596,8.17124146e-14 Z M318,0 L318,20 L298,20 L318,0 Z" id="Triangle-1-Copy" fill="#494949" sketch:type="MSShapeGroup"></path>
                <path d="M888,0 L908,0 L888,20 L888,0 Z M888,8.17124146e-14 L888,20 L610,20 L610,3.06446431e-14 L888,8.17124146e-14 Z M610,0 L610,20 L590,20 L610,0 Z" id="Triangle-1-Copy-2" fill="#BFBFBF" sketch:type="MSShapeGroup"></path>
                <path d="M1186,0 L1206,0 L1186,20 L1186,0 Z M1186,8.17124146e-14 L1186,20 L908,20 L908,3.06446431e-14 L1186,8.17124146e-14 Z M908,0 L908,20 L888,20 L908,0 Z" id="Triangle-1-Copy-3" fill="#EAEAEA" sketch:type="MSShapeGroup"></path>
            </g>
            <g id="Group-Copy-50" sketch:type="MSLayerGroup" transform="translate(1163.000000, 333.422751) rotate(-72.000000) translate(-1163.000000, -333.422751) translate(560.000000, 323.422751)" fill="#000000">
                <path d="M298,0 L318,0 L298,20 L298,0 Z M298,8.17124146e-14 L298,20 L20,20 L20,3.06446431e-14 L298,8.17124146e-14 Z M20,0 L20,20 L0,20 L20,0 Z" id="Triangle-1" sketch:type="MSShapeGroup"></path>
            </g>
            <g id="Group-Copy-48" sketch:type="MSLayerGroup" transform="translate(640.000000, 667.422751) rotate(-72.000000) translate(-640.000000, -667.422751) translate(37.000000, 657.422751)">
                <path d="M298,0 L318,0 L298,20 L298,0 Z M298,8.17124146e-14 L298,20 L20,20 L20,3.06446431e-14 L298,8.17124146e-14 Z M20,0 L20,20 L0,20 L20,0 Z" id="Triangle-1" fill="#000000" sketch:type="MSShapeGroup"></path>
                <path d="M596,0 L616,0 L596,20 L596,0 Z M596,8.17124146e-14 L596,20 L318,20 L318,3.06446431e-14 L596,8.17124146e-14 Z M318,0 L318,20 L298,20 L318,0 Z" id="Triangle-1-Copy" fill="#494949" sketch:type="MSShapeGroup"></path>
                <path d="M888,0 L908,0 L888,20 L888,0 Z M888,8.17124146e-14 L888,20 L610,20 L610,3.06446431e-14 L888,8.17124146e-14 Z M610,0 L610,20 L590,20 L610,0 Z" id="Triangle-1-Copy-2" fill="#BFBFBF" sketch:type="MSShapeGroup"></path>
                <path d="M1186,0 L1206,0 L1186,20 L1186,0 Z M1186,8.17124146e-14 L1186,20 L908,20 L908,3.06446431e-14 L1186,8.17124146e-14 Z M908,0 L908,20 L888,20 L908,0 Z" id="Triangle-1-Copy-3" fill="#EAEAEA" sketch:type="MSShapeGroup"></path>
            </g>
            <g id="Group-Copy-67" sketch:type="MSLayerGroup" transform="translate(519.847813, 911.577249) rotate(-72.000000) translate(-519.847813, -911.577249) translate(-83.152187, 901.577249)">
                <path d="M596,0 L616,0 L596,20 L596,0 Z M596,8.17124146e-14 L596,20 L318,20 L318,3.06446431e-14 L596,8.17124146e-14 Z M318,0 L318,20 L298,20 L318,0 Z" id="Triangle-1-Copy" fill="#494949" sketch:type="MSShapeGroup"></path>
                <path d="M888,0 L908,0 L888,20 L888,0 Z M888,8.17124146e-14 L888,20 L610,20 L610,3.06446431e-14 L888,8.17124146e-14 Z M610,0 L610,20 L590,20 L610,0 Z" id="Triangle-1-Copy-2" fill="#BFBFBF" sketch:type="MSShapeGroup"></path>
                <path d="M1186,0 L1206,0 L1186,20 L1186,0 Z M1186,8.17124146e-14 L1186,20 L908,20 L908,3.06446431e-14 L1186,8.17124146e-14 Z M908,0 L908,20 L888,20 L908,0 Z" id="Triangle-1-Copy-3" fill="#EAEAEA" sketch:type="MSShapeGroup"></path>
            </g>
            <g id="Group-Copy-47" sketch:type="MSLayerGroup" transform="translate(799.000000, 436.422751) rotate(-72.000000) translate(-799.000000, -436.422751) translate(196.000000, 426.422751)">
                <path d="M298,0 L318,0 L298,20 L298,0 Z M298,8.17124146e-14 L298,20 L20,20 L20,3.06446431e-14 L298,8.17124146e-14 Z M20,0 L20,20 L0,20 L20,0 Z" id="Triangle-1" fill="#000000" sketch:type="MSShapeGroup"></path>
                <path d="M596,0 L616,0 L596,20 L596,0 Z M596,8.17124146e-14 L596,20 L318,20 L318,3.06446431e-14 L596,8.17124146e-14 Z M318,0 L318,20 L298,20 L318,0 Z" id="Triangle-1-Copy" fill="#494949" sketch:type="MSShapeGroup"></path>
                <path d="M888,0 L908,0 L888,20 L888,0 Z M888,8.17124146e-14 L888,20 L610,20 L610,3.06446431e-14 L888,8.17124146e-14 Z M610,0 L610,20 L590,20 L610,0 Z" id="Triangle-1-Copy-2" fill="#BFBFBF" sketch:type="MSShapeGroup"></path>
                <path d="M1186,0 L1206,0 L1186,20 L1186,0 Z M1186,8.17124146e-14 L1186,20 L908,20 L908,3.06446431e-14 L1186,8.17124146e-14 Z M908,0 L908,20 L888,20 L908,0 Z" id="Triangle-1-Copy-3" fill="#EAEAEA" sketch:type="MSShapeGroup"></path>
            </g>
            <g id="Group-Copy-46" sketch:type="MSLayerGroup" transform="translate(676.000000, 878.422751) rotate(-72.000000) translate(-676.000000, -878.422751) translate(73.000000, 868.422751)">
                <path d="M596,0 L616,0 L596,20 L596,0 Z M596,8.17124146e-14 L596,20 L318,20 L318,3.06446431e-14 L596,8.17124146e-14 Z M318,0 L318,20 L298,20 L318,0 Z" id="Triangle-1-Copy" fill="#494949" sketch:type="MSShapeGroup"></path>
                <path d="M888,0 L908,0 L888,20 L888,0 Z M888,8.17124146e-14 L888,20 L610,20 L610,3.06446431e-14 L888,8.17124146e-14 Z M610,0 L610,20 L590,20 L610,0 Z" id="Triangle-1-Copy-2" fill="#BFBFBF" sketch:type="MSShapeGroup"></path>
                <path d="M1186,0 L1206,0 L1186,20 L1186,0 Z M1186,8.17124146e-14 L1186,20 L908,20 L908,3.06446431e-14 L1186,8.17124146e-14 Z M908,0 L908,20 L888,20 L908,0 Z" id="Triangle-1-Copy-3" fill="#EAEAEA" sketch:type="MSShapeGroup"></path>
            </g>
            <g id="Group-Copy-45" sketch:type="MSLayerGroup" transform="translate(853.000000, 460.422751) rotate(-72.000000) translate(-853.000000, -460.422751) translate(250.000000, 450.422751)">
                <path d="M298,0 L318,0 L298,20 L298,0 Z M298,8.17124146e-14 L298,20 L20,20 L20,3.06446431e-14 L298,8.17124146e-14 Z M20,0 L20,20 L0,20 L20,0 Z" id="Triangle-1" fill="#000000" sketch:type="MSShapeGroup"></path>
                <path d="M596,0 L616,0 L596,20 L596,0 Z M596,8.17124146e-14 L596,20 L318,20 L318,3.06446431e-14 L596,8.17124146e-14 Z M318,0 L318,20 L298,20 L318,0 Z" id="Triangle-1-Copy" fill="#494949" sketch:type="MSShapeGroup"></path>
                <path d="M888,0 L908,0 L888,20 L888,0 Z M888,8.17124146e-14 L888,20 L610,20 L610,3.06446431e-14 L888,8.17124146e-14 Z M610,0 L610,20 L590,20 L610,0 Z" id="Triangle-1-Copy-2" fill="#BFBFBF" sketch:type="MSShapeGroup"></path>
                <path d="M1186,0 L1206,0 L1186,20 L1186,0 Z M1186,8.17124146e-14 L1186,20 L908,20 L908,3.06446431e-14 L1186,8.17124146e-14 Z M908,0 L908,20 L888,20 L908,0 Z" id="Triangle-1-Copy-3" fill="#EAEAEA" sketch:type="MSShapeGroup"></path>
            </g>
            <g id="Group-Copy-44" sketch:type="MSLayerGroup" transform="translate(692.000000, 635.422751) rotate(-72.000000) translate(-692.000000, -635.422751) translate(89.000000, 625.422751)">
                <path d="M298,0 L318,0 L298,20 L298,0 Z M298,8.17124146e-14 L298,20 L20,20 L20,3.06446431e-14 L298,8.17124146e-14 Z M20,0 L20,20 L0,20 L20,0 Z" id="Triangle-1" fill="#000000" sketch:type="MSShapeGroup"></path>
                <path d="M596,0 L616,0 L596,20 L596,0 Z M596,8.17124146e-14 L596,20 L318,20 L318,3.06446431e-14 L596,8.17124146e-14 Z M318,0 L318,20 L298,20 L318,0 Z" id="Triangle-1-Copy" fill="#494949" sketch:type="MSShapeGroup"></path>
                <path d="M888,0 L908,0 L888,20 L888,0 Z M888,8.17124146e-14 L888,20 L610,20 L610,3.06446431e-14 L888,8.17124146e-14 Z M610,0 L610,20 L590,20 L610,0 Z" id="Triangle-1-Copy-2" fill="#BFBFBF" sketch:type="MSShapeGroup"></path>
                <path d="M1186,0 L1206,0 L1186,20 L1186,0 Z M1186,8.17124146e-14 L1186,20 L908,20 L908,3.06446431e-14 L1186,8.17124146e-14 Z M908,0 L908,20 L888,20 L908,0 Z" id="Triangle-1-Copy-3" fill="#EAEAEA" sketch:type="MSShapeGroup"></path>
            </g>
            <g id="Group-Copy-43" sketch:type="MSLayerGroup" transform="translate(1058.000000, 333.422751) rotate(-72.000000) translate(-1058.000000, -333.422751) translate(455.000000, 323.422751)">
                <path d="M298,0 L318,0 L298,20 L298,0 Z M298,8.17124146e-14 L298,20 L20,20 L20,3.06446431e-14 L298,8.17124146e-14 Z M20,0 L20,20 L0,20 L20,0 Z" id="Triangle-1" fill="#000000" sketch:type="MSShapeGroup"></path>
                <path d="M596,0 L616,0 L596,20 L596,0 Z M596,8.17124146e-14 L596,20 L318,20 L318,3.06446431e-14 L596,8.17124146e-14 Z M318,0 L318,20 L298,20 L318,0 Z" id="Triangle-1-Copy" fill="#494949" sketch:type="MSShapeGroup"></path>
            </g>
            <g id="Group-Copy-41" sketch:type="MSLayerGroup" transform="translate(901.000000, 250.422751) rotate(-72.000000) translate(-901.000000, -250.422751) translate(298.000000, 240.422751)">
                <path d="M298,0 L318,0 L298,20 L298,0 Z M298,8.17124146e-14 L298,20 L20,20 L20,3.06446431e-14 L298,8.17124146e-14 Z M20,0 L20,20 L0,20 L20,0 Z" id="Triangle-1" fill="#000000" sketch:type="MSShapeGroup"></path>
                <path d="M596,0 L616,0 L596,20 L596,0 Z M596,8.17124146e-14 L596,20 L318,20 L318,3.06446431e-14 L596,8.17124146e-14 Z M318,0 L318,20 L298,20 L318,0 Z" id="Triangle-1-Copy" fill="#494949" sketch:type="MSShapeGroup"></path>
                <path d="M888,0 L908,0 L888,20 L888,0 Z M888,8.17124146e-14 L888,20 L610,20 L610,3.06446431e-14 L888,8.17124146e-14 Z M610,0 L610,20 L590,20 L610,0 Z" id="Triangle-1-Copy-2" fill="#BFBFBF" sketch:type="MSShapeGroup"></path>
            </g>
            <g id="Group-Copy-40" sketch:type="MSLayerGroup" transform="translate(997.000000, 80.422751) rotate(-72.000000) translate(-997.000000, -80.422751) translate(394.000000, 70.422751)">
                <path d="M298,0 L318,0 L298,20 L298,0 Z M298,8.17124146e-14 L298,20 L20,20 L20,3.06446431e-14 L298,8.17124146e-14 Z M20,0 L20,20 L0,20 L20,0 Z" id="Triangle-1" fill="#000000" sketch:type="MSShapeGroup"></path>
                <path d="M596,0 L616,0 L596,20 L596,0 Z M596,8.17124146e-14 L596,20 L318,20 L318,3.06446431e-14 L596,8.17124146e-14 Z M318,0 L318,20 L298,20 L318,0 Z" id="Triangle-1-Copy" fill="#494949" sketch:type="MSShapeGroup"></path>
                <path d="M888,0 L908,0 L888,20 L888,0 Z M888,8.17124146e-14 L888,20 L610,20 L610,3.06446431e-14 L888,8.17124146e-14 Z M610,0 L610,20 L590,20 L610,0 Z" id="Triangle-1-Copy-2" fill="#BFBFBF" sketch:type="MSShapeGroup"></path>
            </g>
            <g id="Group-Copy-74" sketch:type="MSLayerGroup" transform="translate(1062.847813, 63.577249) rotate(-72.000000) translate(-1062.847813, -63.577249) translate(459.847813, 53.577249)">
                <path d="M298,0 L318,0 L298,20 L298,0 Z M298,8.17124146e-14 L298,20 L20,20 L20,3.06446431e-14 L298,8.17124146e-14 Z M20,0 L20,20 L0,20 L20,0 Z" id="Triangle-1" fill="#000000" sketch:type="MSShapeGroup"></path>
                <path d="M596,0 L616,0 L596,20 L596,0 Z M596,8.17124146e-14 L596,20 L318,20 L318,3.06446431e-14 L596,8.17124146e-14 Z M318,0 L318,20 L298,20 L318,0 Z" id="Triangle-1-Copy" fill="#494949" sketch:type="MSShapeGroup"></path>
            </g>
            <g id="Group-Copy-39" sketch:type="MSLayerGroup" transform="translate(796.000000, 250.422751) rotate(-72.000000) translate(-796.000000, -250.422751) translate(193.000000, 240.422751)">
                <path d="M298,0 L318,0 L298,20 L298,0 Z M298,8.17124146e-14 L298,20 L20,20 L20,3.06446431e-14 L298,8.17124146e-14 Z M20,0 L20,20 L0,20 L20,0 Z" id="Triangle-1" fill="#000000" sketch:type="MSShapeGroup"></path>
                <path d="M596,0 L616,0 L596,20 L596,0 Z M596,8.17124146e-14 L596,20 L318,20 L318,3.06446431e-14 L596,8.17124146e-14 Z M318,0 L318,20 L298,20 L318,0 Z" id="Triangle-1-Copy" fill="#494949" sketch:type="MSShapeGroup"></path>
                <path d="M888,0 L908,0 L888,20 L888,0 Z M888,8.17124146e-14 L888,20 L610,20 L610,3.06446431e-14 L888,8.17124146e-14 Z M610,0 L610,20 L590,20 L610,0 Z" id="Triangle-1-Copy-2" fill="#BFBFBF" sketch:type="MSShapeGroup"></path>
            </g>
            <g id="Group-Copy-37" sketch:type="MSLayerGroup" transform="translate(372.847813, 1170.577249) rotate(-72.000000) translate(-372.847813, -1170.577249) translate(-230.152187, 1160.577249)">
                <path d="M888,0 L908,0 L888,20 L888,0 Z M888,8.17124146e-14 L888,20 L610,20 L610,3.06446431e-14 L888,8.17124146e-14 Z M610,0 L610,20 L590,20 L610,0 Z" id="Triangle-1-Copy-2" fill="#BFBFBF" sketch:type="MSShapeGroup"></path>
                <path d="M1186,0 L1206,0 L1186,20 L1186,0 Z M1186,8.17124146e-14 L1186,20 L908,20 L908,3.06446431e-14 L1186,8.17124146e-14 Z M908,0 L908,20 L888,20 L908,0 Z" id="Triangle-1-Copy-3" fill="#EAEAEA" sketch:type="MSShapeGroup"></path>
            </g>
            <g id="Group-Copy-72" sketch:type="MSLayerGroup" transform="translate(617.000000, 485.000000) rotate(-72.000000) translate(-617.000000, -485.000000) translate(14.000000, 475.000000)">
                <path d="M298,0 L318,0 L298,20 L298,0 Z M298,8.17124146e-14 L298,20 L20,20 L20,3.06446431e-14 L298,8.17124146e-14 Z M20,0 L20,20 L0,20 L20,0 Z" id="Triangle-1" fill="#000000" sketch:type="MSShapeGroup"></path>
                <path d="M596,0 L616,0 L596,20 L596,0 Z M596,8.17124146e-14 L596,20 L318,20 L318,3.06446431e-14 L596,8.17124146e-14 Z M318,0 L318,20 L298,20 L318,0 Z" id="Triangle-1-Copy" fill="#494949" sketch:type="MSShapeGroup"></path>
                <path d="M888,0 L908,0 L888,20 L888,0 Z M888,8.17124146e-14 L888,20 L610,20 L610,3.06446431e-14 L888,8.17124146e-14 Z M610,0 L610,20 L590,20 L610,0 Z" id="Triangle-1-Copy-2" fill="#BFBFBF" sketch:type="MSShapeGroup"></path>
                <path d="M1186,0 L1206,0 L1186,20 L1186,0 Z M1186,8.17124146e-14 L1186,20 L908,20 L908,3.06446431e-14 L1186,8.17124146e-14 Z M908,0 L908,20 L888,20 L908,0 Z" id="Triangle-1-Copy-3" fill="#EAEAEA" sketch:type="MSShapeGroup"></path>
            </g>
            <g id="Group-Copy-118" sketch:type="MSLayerGroup" transform="translate(506.847813, 691.577249) rotate(-72.000000) translate(-506.847813, -691.577249) translate(-96.152187, 681.577249)">
                <path d="M298,0 L318,0 L298,20 L298,0 Z M298,8.17124146e-14 L298,20 L20,20 L20,3.06446431e-14 L298,8.17124146e-14 Z M20,0 L20,20 L0,20 L20,0 Z" id="Triangle-1" fill="#000000" sketch:type="MSShapeGroup"></path>
                <path d="M596,0 L616,0 L596,20 L596,0 Z M596,8.17124146e-14 L596,20 L318,20 L318,3.06446431e-14 L596,8.17124146e-14 Z M318,0 L318,20 L298,20 L318,0 Z" id="Triangle-1-Copy" fill="#494949" sketch:type="MSShapeGroup"></path>
                <path d="M888,0 L908,0 L888,20 L888,0 Z M888,8.17124146e-14 L888,20 L610,20 L610,3.06446431e-14 L888,8.17124146e-14 Z M610,0 L610,20 L590,20 L610,0 Z" id="Triangle-1-Copy-2" fill="#BFBFBF" sketch:type="MSShapeGroup"></path>
                <path d="M1186,0 L1206,0 L1186,20 L1186,0 Z M1186,8.17124146e-14 L1186,20 L908,20 L908,3.06446431e-14 L1186,8.17124146e-14 Z M908,0 L908,20 L888,20 L908,0 Z" id="Triangle-1-Copy-3" fill="#EAEAEA" sketch:type="MSShapeGroup"></path>
            </g>
            <g id="Group-Copy-71" sketch:type="MSLayerGroup" transform="translate(372.847813, 1170.577249) rotate(-72.000000) translate(-372.847813, -1170.577249) translate(-230.152187, 1160.577249)">
                <path d="M888,0 L908,0 L888,20 L888,0 Z M888,8.17124146e-14 L888,20 L610,20 L610,3.06446431e-14 L888,8.17124146e-14 Z M610,0 L610,20 L590,20 L610,0 Z" id="Triangle-1-Copy-2" fill="#BFBFBF" sketch:type="MSShapeGroup"></path>
                <path d="M1186,0 L1206,0 L1186,20 L1186,0 Z M1186,8.17124146e-14 L1186,20 L908,20 L908,3.06446431e-14 L1186,8.17124146e-14 Z M908,0 L908,20 L888,20 L908,0 Z" id="Triangle-1-Copy-3" fill="#EAEAEA" sketch:type="MSShapeGroup"></path>
            </g>
            <g id="Group-Copy-73" sketch:type="MSLayerGroup" transform="translate(418.847813, 835.577249) rotate(-72.000000) translate(-418.847813, -835.577249) translate(-184.152187, 825.577249)">
                <path d="M596,0 L616,0 L596,20 L596,0 Z M596,8.17124146e-14 L596,20 L318,20 L318,3.06446431e-14 L596,8.17124146e-14 Z M318,0 L318,20 L298,20 L318,0 Z" id="Triangle-1-Copy" fill="#494949" sketch:type="MSShapeGroup"></path>
                <path d="M888,0 L908,0 L888,20 L888,0 Z M888,8.17124146e-14 L888,20 L610,20 L610,3.06446431e-14 L888,8.17124146e-14 Z M610,0 L610,20 L590,20 L610,0 Z" id="Triangle-1-Copy-2" fill="#BFBFBF" sketch:type="MSShapeGroup"></path>
                <path d="M1186,0 L1206,0 L1186,20 L1186,0 Z M1186,8.17124146e-14 L1186,20 L908,20 L908,3.06446431e-14 L1186,8.17124146e-14 Z M908,0 L908,20 L888,20 L908,0 Z" id="Triangle-1-Copy-3" fill="#EAEAEA" sketch:type="MSShapeGroup"></path>
            </g>
            <g id="Group-Copy-63" sketch:type="MSLayerGroup" transform="translate(1086.000000, 1015.422751) rotate(-72.000000) translate(-1086.000000, -1015.422751) translate(483.000000, 1005.422751)"></g>
            <g id="Group-Copy-58" sketch:type="MSLayerGroup" transform="translate(704.000000, 1106.422751) rotate(-72.000000) translate(-704.000000, -1106.422751) translate(101.000000, 1096.422751)">
                <path d="M888,0 L908,0 L888,20 L888,0 Z M888,8.17124146e-14 L888,20 L610,20 L610,3.06446431e-14 L888,8.17124146e-14 Z M610,0 L610,20 L590,20 L610,0 Z" id="Triangle-1-Copy-2" fill="#BFBFBF" sketch:type="MSShapeGroup"></path>
                <path d="M1186,0 L1206,0 L1186,20 L1186,0 Z M1186,8.17124146e-14 L1186,20 L908,20 L908,3.06446431e-14 L1186,8.17124146e-14 Z M908,0 L908,20 L888,20 L908,0 Z" id="Triangle-1-Copy-3" fill="#EAEAEA" sketch:type="MSShapeGroup"></path>
            </g>
            <g id="Group-Copy-56" sketch:type="MSLayerGroup" transform="translate(758.000000, 1130.422751) rotate(-72.000000) translate(-758.000000, -1130.422751) translate(155.000000, 1120.422751)">
                <path d="M888,0 L908,0 L888,20 L888,0 Z M888,8.17124146e-14 L888,20 L610,20 L610,3.06446431e-14 L888,8.17124146e-14 Z M610,0 L610,20 L590,20 L610,0 Z" id="Triangle-1-Copy-2" fill="#BFBFBF" sketch:type="MSShapeGroup"></path>
                <path d="M1186,0 L1206,0 L1186,20 L1186,0 Z M1186,8.17124146e-14 L1186,20 L908,20 L908,3.06446431e-14 L1186,8.17124146e-14 Z M908,0 L908,20 L888,20 L908,0 Z" id="Triangle-1-Copy-3" fill="#EAEAEA" sketch:type="MSShapeGroup"></path>
            </g>
            <g id="Group-Copy-42" sketch:type="MSLayerGroup" transform="translate(936.000000, -49.577249) rotate(-72.000000) translate(-936.000000, 49.577249) translate(333.000000, -59.577249)">
                <path d="M298,0 L318,0 L298,20 L298,0 Z M298,8.17124146e-14 L298,20 L20,20 L20,3.06446431e-14 L298,8.17124146e-14 Z M20,0 L20,20 L0,20 L20,0 Z" id="Triangle-1" fill="#000000" sketch:type="MSShapeGroup"></path>
                <path d="M596,0 L616,0 L596,20 L596,0 Z M596,8.17124146e-14 L596,20 L318,20 L318,3.06446431e-14 L596,8.17124146e-14 Z M318,0 L318,20 L298,20 L318,0 Z" id="Triangle-1-Copy" fill="#494949" sketch:type="MSShapeGroup"></path>
            </g>
            <g id="Group-Copy-75" sketch:type="MSLayerGroup" transform="translate(1171.847813, -208.422751) rotate(-72.000000) translate(-1171.847813, 208.422751) translate(568.847813, -218.422751)" fill="#000000">
                <path d="M298,0 L318,0 L298,20 L298,0 Z M298,8.17124146e-14 L298,20 L20,20 L20,3.06446431e-14 L298,8.17124146e-14 Z M20,0 L20,20 L0,20 L20,0 Z" id="Triangle-1" sketch:type="MSShapeGroup"></path>
            </g>
            <g id="Group-Copy-89" sketch:type="MSLayerGroup" transform="translate(191.847813, -381.422751) rotate(-72.000000) translate(-191.847813, 381.422751) translate(-411.152187, -391.422751)" fill="#000000">
                <path d="M298,0 L318,0 L298,20 L298,0 Z M298,8.17124146e-14 L298,20 L20,20 L20,3.06446431e-14 L298,8.17124146e-14 Z M20,0 L20,20 L0,20 L20,0 Z" id="Triangle-1" sketch:type="MSShapeGroup"></path>
            </g>
            <g id="Group-Copy-112" sketch:type="MSLayerGroup" transform="translate(191.847813, 259.500000) rotate(-72.000000) translate(-191.847813, -259.500000) translate(-411.152187, 249.500000)">
                <path d="M298,0 L318,0 L298,20 L298,0 Z M298,8.17124146e-14 L298,20 L20,20 L20,3.06446431e-14 L298,8.17124146e-14 Z M20,0 L20,20 L0,20 L20,0 Z" id="Triangle-1" fill="#000000" sketch:type="MSShapeGroup"></path>
                <path d="M596,0 L616,0 L596,20 L596,0 Z M596,8.17124146e-14 L596,20 L318,20 L318,3.06446431e-14 L596,8.17124146e-14 Z M318,0 L318,20 L298,20 L318,0 Z" id="Triangle-1-Copy" fill="#494949" sketch:type="MSShapeGroup"></path>
                <path d="M888,0 L908,0 L888,20 L888,0 Z M888,8.17124146e-14 L888,20 L610,20 L610,3.06446431e-14 L888,8.17124146e-14 Z M610,0 L610,20 L590,20 L610,0 Z" id="Triangle-1-Copy-2" fill="#BFBFBF" sketch:type="MSShapeGroup"></path>
            </g>
            <g id="Group-Copy-111" sketch:type="MSLayerGroup" transform="translate(156.847813, 559.500000) rotate(-72.000000) translate(-156.847813, -559.500000) translate(-446.152187, 549.500000)">
                <path d="M298,0 L318,0 L298,20 L298,0 Z M298,8.17124146e-14 L298,20 L20,20 L20,3.06446431e-14 L298,8.17124146e-14 Z M20,0 L20,20 L0,20 L20,0 Z" id="Triangle-1" fill="#000000" sketch:type="MSShapeGroup"></path>
                <path d="M596,0 L616,0 L596,20 L596,0 Z M596,8.17124146e-14 L596,20 L318,20 L318,3.06446431e-14 L596,8.17124146e-14 Z M318,0 L318,20 L298,20 L318,0 Z" id="Triangle-1-Copy" fill="#494949" sketch:type="MSShapeGroup"></path>
                <path d="M888,0 L908,0 L888,20 L888,0 Z M888,8.17124146e-14 L888,20 L610,20 L610,3.06446431e-14 L888,8.17124146e-14 Z M610,0 L610,20 L590,20 L610,0 Z" id="Triangle-1-Copy-2" fill="#BFBFBF" sketch:type="MSShapeGroup"></path>
                <path d="M1186,0 L1206,0 L1186,20 L1186,0 Z M1186,8.17124146e-14 L1186,20 L908,20 L908,3.06446431e-14 L1186,8.17124146e-14 Z M908,0 L908,20 L888,20 L908,0 Z" id="Triangle-1-Copy-3" fill="#EAEAEA" sketch:type="MSShapeGroup"></path>
            </g>
            <g id="Group-Copy-110" sketch:type="MSLayerGroup" transform="translate(252.847813, 389.500000) rotate(-72.000000) translate(-252.847813, -389.500000) translate(-350.152187, 379.500000)">
                <path d="M298,0 L318,0 L298,20 L298,0 Z M298,8.17124146e-14 L298,20 L20,20 L20,3.06446431e-14 L298,8.17124146e-14 Z M20,0 L20,20 L0,20 L20,0 Z" id="Triangle-1" fill="#000000" sketch:type="MSShapeGroup"></path>
                <path d="M596,0 L616,0 L596,20 L596,0 Z M596,8.17124146e-14 L596,20 L318,20 L318,3.06446431e-14 L596,8.17124146e-14 Z M318,0 L318,20 L298,20 L318,0 Z" id="Triangle-1-Copy" fill="#494949" sketch:type="MSShapeGroup"></path>
                <path d="M888,0 L908,0 L888,20 L888,0 Z M888,8.17124146e-14 L888,20 L610,20 L610,3.06446431e-14 L888,8.17124146e-14 Z M610,0 L610,20 L590,20 L610,0 Z" id="Triangle-1-Copy-2" fill="#BFBFBF" sketch:type="MSShapeGroup"></path>
                <path d="M1186,0 L1206,0 L1186,20 L1186,0 Z M1186,8.17124146e-14 L1186,20 L908,20 L908,3.06446431e-14 L1186,8.17124146e-14 Z M908,0 L908,20 L888,20 L908,0 Z" id="Triangle-1-Copy-3" fill="#EAEAEA" sketch:type="MSShapeGroup"></path>
            </g>
            <g id="Group-Copy-109" sketch:type="MSLayerGroup" transform="translate(-10.000000, 306.000000) rotate(-72.000000) translate(10.000000, -306.000000) translate(-613.000000, 296.000000)">
                <path d="M596,0 L616,0 L596,20 L596,0 Z M596,8.17124146e-14 L596,20 L318,20 L318,3.06446431e-14 L596,8.17124146e-14 Z M318,0 L318,20 L298,20 L318,0 Z" id="Triangle-1-Copy" fill="#494949" sketch:type="MSShapeGroup"></path>
                <path d="M888,0 L908,0 L888,20 L888,0 Z M888,8.17124146e-14 L888,20 L610,20 L610,3.06446431e-14 L888,8.17124146e-14 Z M610,0 L610,20 L590,20 L610,0 Z" id="Triangle-1-Copy-2" fill="#BFBFBF" sketch:type="MSShapeGroup"></path>
                <path d="M1186,0 L1206,0 L1186,20 L1186,0 Z M1186,8.17124146e-14 L1186,20 L908,20 L908,3.06446431e-14 L1186,8.17124146e-14 Z M908,0 L908,20 L888,20 L908,0 Z" id="Triangle-1-Copy-3" fill="#EAEAEA" sketch:type="MSShapeGroup"></path>
            </g>
            <g id="Group-Copy-108" sketch:type="MSLayerGroup" transform="translate(149.000000, 75.000000) rotate(-72.000000) translate(-149.000000, -75.000000) translate(-454.000000, 65.000000)">
                <path d="M298,0 L318,0 L298,20 L298,0 Z M298,8.17124146e-14 L298,20 L20,20 L20,3.06446431e-14 L298,8.17124146e-14 Z M20,0 L20,20 L0,20 L20,0 Z" id="Triangle-1" fill="#000000" sketch:type="MSShapeGroup"></path>
                <path d="M596,0 L616,0 L596,20 L596,0 Z M596,8.17124146e-14 L596,20 L318,20 L318,3.06446431e-14 L596,8.17124146e-14 Z M318,0 L318,20 L298,20 L318,0 Z" id="Triangle-1-Copy" fill="#494949" sketch:type="MSShapeGroup"></path>
                <path d="M888,0 L908,0 L888,20 L888,0 Z M888,8.17124146e-14 L888,20 L610,20 L610,3.06446431e-14 L888,8.17124146e-14 Z M610,0 L610,20 L590,20 L610,0 Z" id="Triangle-1-Copy-2" fill="#BFBFBF" sketch:type="MSShapeGroup"></path>
            </g>
            <g id="Group-Copy-107" sketch:type="MSLayerGroup" transform="translate(26.000000, 517.000000) rotate(-72.000000) translate(-26.000000, -517.000000) translate(-577.000000, 507.000000)">
                <path d="M596,0 L616,0 L596,20 L596,0 Z M596,8.17124146e-14 L596,20 L318,20 L318,3.06446431e-14 L596,8.17124146e-14 Z M318,0 L318,20 L298,20 L318,0 Z" id="Triangle-1-Copy" fill="#494949" sketch:type="MSShapeGroup"></path>
                <path d="M888,0 L908,0 L888,20 L888,0 Z M888,8.17124146e-14 L888,20 L610,20 L610,3.06446431e-14 L888,8.17124146e-14 Z M610,0 L610,20 L590,20 L610,0 Z" id="Triangle-1-Copy-2" fill="#BFBFBF" sketch:type="MSShapeGroup"></path>
                <path d="M1186,0 L1206,0 L1186,20 L1186,0 Z M1186,8.17124146e-14 L1186,20 L908,20 L908,3.06446431e-14 L1186,8.17124146e-14 Z M908,0 L908,20 L888,20 L908,0 Z" id="Triangle-1-Copy-3" fill="#EAEAEA" sketch:type="MSShapeGroup"></path>
            </g>
            <g id="Group-Copy-106" sketch:type="MSLayerGroup" transform="translate(203.000000, 99.000000) rotate(-72.000000) translate(-203.000000, -99.000000) translate(-400.000000, 89.000000)">
                <path d="M298,0 L318,0 L298,20 L298,0 Z M298,8.17124146e-14 L298,20 L20,20 L20,3.06446431e-14 L298,8.17124146e-14 Z M20,0 L20,20 L0,20 L20,0 Z" id="Triangle-1" fill="#000000" sketch:type="MSShapeGroup"></path>
                <path d="M596,0 L616,0 L596,20 L596,0 Z M596,8.17124146e-14 L596,20 L318,20 L318,3.06446431e-14 L596,8.17124146e-14 Z M318,0 L318,20 L298,20 L318,0 Z" id="Triangle-1-Copy" fill="#494949" sketch:type="MSShapeGroup"></path>
                <path d="M888,0 L908,0 L888,20 L888,0 Z M888,8.17124146e-14 L888,20 L610,20 L610,3.06446431e-14 L888,8.17124146e-14 Z M610,0 L610,20 L590,20 L610,0 Z" id="Triangle-1-Copy-2" fill="#BFBFBF" sketch:type="MSShapeGroup"></path>
            </g>
            <g id="Group-Copy-105" sketch:type="MSLayerGroup" transform="translate(42.000000, 274.000000) rotate(-72.000000) translate(-42.000000, -274.000000) translate(-561.000000, 264.000000)">
                <path d="M596,0 L616,0 L596,20 L596,0 Z M596,8.17124146e-14 L596,20 L318,20 L318,3.06446431e-14 L596,8.17124146e-14 Z M318,0 L318,20 L298,20 L318,0 Z" id="Triangle-1-Copy" fill="#494949" sketch:type="MSShapeGroup"></path>
                <path d="M888,0 L908,0 L888,20 L888,0 Z M888,8.17124146e-14 L888,20 L610,20 L610,3.06446431e-14 L888,8.17124146e-14 Z M610,0 L610,20 L590,20 L610,0 Z" id="Triangle-1-Copy-2" fill="#BFBFBF" sketch:type="MSShapeGroup"></path>
                <path d="M1186,0 L1206,0 L1186,20 L1186,0 Z M1186,8.17124146e-14 L1186,20 L908,20 L908,3.06446431e-14 L1186,8.17124146e-14 Z M908,0 L908,20 L888,20 L908,0 Z" id="Triangle-1-Copy-3" fill="#EAEAEA" sketch:type="MSShapeGroup"></path>
            </g>
            <g id="Group-Copy-104" sketch:type="MSLayerGroup" transform="translate(251.000000, -111.000000) rotate(-72.000000) translate(-251.000000, 111.000000) translate(-352.000000, -121.000000)">
                <path d="M298,0 L318,0 L298,20 L298,0 Z M298,8.17124146e-14 L298,20 L20,20 L20,3.06446431e-14 L298,8.17124146e-14 Z M20,0 L20,20 L0,20 L20,0 Z" id="Triangle-1" fill="#000000" sketch:type="MSShapeGroup"></path>
                <path d="M596,0 L616,0 L596,20 L596,0 Z M596,8.17124146e-14 L596,20 L318,20 L318,3.06446431e-14 L596,8.17124146e-14 Z M318,0 L318,20 L298,20 L318,0 Z" id="Triangle-1-Copy" fill="#494949" sketch:type="MSShapeGroup"></path>
            </g>
            <g id="Group-Copy-103" sketch:type="MSLayerGroup" transform="translate(146.000000, -111.000000) rotate(-72.000000) translate(-146.000000, 111.000000) translate(-457.000000, -121.000000)">
                <path d="M298,0 L318,0 L298,20 L298,0 Z M298,8.17124146e-14 L298,20 L20,20 L20,3.06446431e-14 L298,8.17124146e-14 Z M20,0 L20,20 L0,20 L20,0 Z" id="Triangle-1" fill="#000000" sketch:type="MSShapeGroup"></path>
                <path d="M596,0 L616,0 L596,20 L596,0 Z M596,8.17124146e-14 L596,20 L318,20 L318,3.06446431e-14 L596,8.17124146e-14 Z M318,0 L318,20 L298,20 L318,0 Z" id="Triangle-1-Copy" fill="#494949" sketch:type="MSShapeGroup"></path>
            </g>
            <g id="Group-Copy-102" sketch:type="MSLayerGroup" transform="translate(19.000000, -165.000000) rotate(-72.000000) translate(-19.000000, 165.000000) translate(-584.000000, -175.000000)" fill="#494949">
                <path d="M596,0 L616,0 L596,20 L596,0 Z M596,8.17124146e-14 L596,20 L318,20 L318,3.06446431e-14 L596,8.17124146e-14 Z M318,0 L318,20 L298,20 L318,0 Z" id="Triangle-1-Copy" sketch:type="MSShapeGroup"></path>
            </g>
            <g id="Group-Copy-101" sketch:type="MSLayerGroup" transform="translate(191.847813, 259.500000) rotate(-72.000000) translate(-191.847813, -259.500000) translate(-411.152187, 249.500000)">
                <path d="M298,0 L318,0 L298,20 L298,0 Z M298,8.17124146e-14 L298,20 L20,20 L20,3.06446431e-14 L298,8.17124146e-14 Z M20,0 L20,20 L0,20 L20,0 Z" id="Triangle-1" fill="#000000" sketch:type="MSShapeGroup"></path>
                <path d="M596,0 L616,0 L596,20 L596,0 Z M596,8.17124146e-14 L596,20 L318,20 L318,3.06446431e-14 L596,8.17124146e-14 Z M318,0 L318,20 L298,20 L318,0 Z" id="Triangle-1-Copy" fill="#494949" sketch:type="MSShapeGroup"></path>
                <path d="M888,0 L908,0 L888,20 L888,0 Z M888,8.17124146e-14 L888,20 L610,20 L610,3.06446431e-14 L888,8.17124146e-14 Z M610,0 L610,20 L590,20 L610,0 Z" id="Triangle-1-Copy-2" fill="#BFBFBF" sketch:type="MSShapeGroup"></path>
            </g>
            <g id="Group-Copy-100" sketch:type="MSLayerGroup" transform="translate(156.847813, 559.500000) rotate(-72.000000) translate(-156.847813, -559.500000) translate(-446.152187, 549.500000)">
                <path d="M298,0 L318,0 L298,20 L298,0 Z M298,8.17124146e-14 L298,20 L20,20 L20,3.06446431e-14 L298,8.17124146e-14 Z M20,0 L20,20 L0,20 L20,0 Z" id="Triangle-1" fill="#000000" sketch:type="MSShapeGroup"></path>
                <path d="M596,0 L616,0 L596,20 L596,0 Z M596,8.17124146e-14 L596,20 L318,20 L318,3.06446431e-14 L596,8.17124146e-14 Z M318,0 L318,20 L298,20 L318,0 Z" id="Triangle-1-Copy" fill="#494949" sketch:type="MSShapeGroup"></path>
                <path d="M888,0 L908,0 L888,20 L888,0 Z M888,8.17124146e-14 L888,20 L610,20 L610,3.06446431e-14 L888,8.17124146e-14 Z M610,0 L610,20 L590,20 L610,0 Z" id="Triangle-1-Copy-2" fill="#BFBFBF" sketch:type="MSShapeGroup"></path>
                <path d="M1186,0 L1206,0 L1186,20 L1186,0 Z M1186,8.17124146e-14 L1186,20 L908,20 L908,3.06446431e-14 L1186,8.17124146e-14 Z M908,0 L908,20 L888,20 L908,0 Z" id="Triangle-1-Copy-3" fill="#EAEAEA" sketch:type="MSShapeGroup"></path>
            </g>
            <g id="Group-Copy-99" sketch:type="MSLayerGroup" transform="translate(252.847813, 389.500000) rotate(-72.000000) translate(-252.847813, -389.500000) translate(-350.152187, 379.500000)">
                <path d="M298,0 L318,0 L298,20 L298,0 Z M298,8.17124146e-14 L298,20 L20,20 L20,3.06446431e-14 L298,8.17124146e-14 Z M20,0 L20,20 L0,20 L20,0 Z" id="Triangle-1" fill="#000000" sketch:type="MSShapeGroup"></path>
                <path d="M596,0 L616,0 L596,20 L596,0 Z M596,8.17124146e-14 L596,20 L318,20 L318,3.06446431e-14 L596,8.17124146e-14 Z M318,0 L318,20 L298,20 L318,0 Z" id="Triangle-1-Copy" fill="#494949" sketch:type="MSShapeGroup"></path>
                <path d="M888,0 L908,0 L888,20 L888,0 Z M888,8.17124146e-14 L888,20 L610,20 L610,3.06446431e-14 L888,8.17124146e-14 Z M610,0 L610,20 L590,20 L610,0 Z" id="Triangle-1-Copy-2" fill="#BFBFBF" sketch:type="MSShapeGroup"></path>
                <path d="M1186,0 L1206,0 L1186,20 L1186,0 Z M1186,8.17124146e-14 L1186,20 L908,20 L908,3.06446431e-14 L1186,8.17124146e-14 Z M908,0 L908,20 L888,20 L908,0 Z" id="Triangle-1-Copy-3" fill="#EAEAEA" sketch:type="MSShapeGroup"></path>
            </g>
            <g id="Group-Copy-98" sketch:type="MSLayerGroup" transform="translate(-10.000000, 306.000000) rotate(-72.000000) translate(10.000000, -306.000000) translate(-613.000000, 296.000000)">
                <path d="M596,0 L616,0 L596,20 L596,0 Z M596,8.17124146e-14 L596,20 L318,20 L318,3.06446431e-14 L596,8.17124146e-14 Z M318,0 L318,20 L298,20 L318,0 Z" id="Triangle-1-Copy" fill="#494949" sketch:type="MSShapeGroup"></path>
                <path d="M888,0 L908,0 L888,20 L888,0 Z M888,8.17124146e-14 L888,20 L610,20 L610,3.06446431e-14 L888,8.17124146e-14 Z M610,0 L610,20 L590,20 L610,0 Z" id="Triangle-1-Copy-2" fill="#BFBFBF" sketch:type="MSShapeGroup"></path>
                <path d="M1186,0 L1206,0 L1186,20 L1186,0 Z M1186,8.17124146e-14 L1186,20 L908,20 L908,3.06446431e-14 L1186,8.17124146e-14 Z M908,0 L908,20 L888,20 L908,0 Z" id="Triangle-1-Copy-3" fill="#EAEAEA" sketch:type="MSShapeGroup"></path>
            </g>
            <g id="Group-Copy-97" sketch:type="MSLayerGroup" transform="translate(149.000000, 75.000000) rotate(-72.000000) translate(-149.000000, -75.000000) translate(-454.000000, 65.000000)">
                <path d="M298,0 L318,0 L298,20 L298,0 Z M298,8.17124146e-14 L298,20 L20,20 L20,3.06446431e-14 L298,8.17124146e-14 Z M20,0 L20,20 L0,20 L20,0 Z" id="Triangle-1" fill="#000000" sketch:type="MSShapeGroup"></path>
                <path d="M596,0 L616,0 L596,20 L596,0 Z M596,8.17124146e-14 L596,20 L318,20 L318,3.06446431e-14 L596,8.17124146e-14 Z M318,0 L318,20 L298,20 L318,0 Z" id="Triangle-1-Copy" fill="#494949" sketch:type="MSShapeGroup"></path>
                <path d="M888,0 L908,0 L888,20 L888,0 Z M888,8.17124146e-14 L888,20 L610,20 L610,3.06446431e-14 L888,8.17124146e-14 Z M610,0 L610,20 L590,20 L610,0 Z" id="Triangle-1-Copy-2" fill="#BFBFBF" sketch:type="MSShapeGroup"></path>
            </g>
            <g id="Group-Copy-96" sketch:type="MSLayerGroup" transform="translate(26.000000, 517.000000) rotate(-72.000000) translate(-26.000000, -517.000000) translate(-577.000000, 507.000000)">
                <path d="M596,0 L616,0 L596,20 L596,0 Z M596,8.17124146e-14 L596,20 L318,20 L318,3.06446431e-14 L596,8.17124146e-14 Z M318,0 L318,20 L298,20 L318,0 Z" id="Triangle-1-Copy" fill="#494949" sketch:type="MSShapeGroup"></path>
                <path d="M888,0 L908,0 L888,20 L888,0 Z M888,8.17124146e-14 L888,20 L610,20 L610,3.06446431e-14 L888,8.17124146e-14 Z M610,0 L610,20 L590,20 L610,0 Z" id="Triangle-1-Copy-2" fill="#BFBFBF" sketch:type="MSShapeGroup"></path>
                <path d="M1186,0 L1206,0 L1186,20 L1186,0 Z M1186,8.17124146e-14 L1186,20 L908,20 L908,3.06446431e-14 L1186,8.17124146e-14 Z M908,0 L908,20 L888,20 L908,0 Z" id="Triangle-1-Copy-3" fill="#EAEAEA" sketch:type="MSShapeGroup"></path>
            </g>
            <g id="Group-Copy-95" sketch:type="MSLayerGroup" transform="translate(203.000000, 99.000000) rotate(-72.000000) translate(-203.000000, -99.000000) translate(-400.000000, 89.000000)">
                <path d="M298,0 L318,0 L298,20 L298,0 Z M298,8.17124146e-14 L298,20 L20,20 L20,3.06446431e-14 L298,8.17124146e-14 Z M20,0 L20,20 L0,20 L20,0 Z" id="Triangle-1" fill="#000000" sketch:type="MSShapeGroup"></path>
                <path d="M596,0 L616,0 L596,20 L596,0 Z M596,8.17124146e-14 L596,20 L318,20 L318,3.06446431e-14 L596,8.17124146e-14 Z M318,0 L318,20 L298,20 L318,0 Z" id="Triangle-1-Copy" fill="#494949" sketch:type="MSShapeGroup"></path>
                <path d="M888,0 L908,0 L888,20 L888,0 Z M888,8.17124146e-14 L888,20 L610,20 L610,3.06446431e-14 L888,8.17124146e-14 Z M610,0 L610,20 L590,20 L610,0 Z" id="Triangle-1-Copy-2" fill="#BFBFBF" sketch:type="MSShapeGroup"></path>
            </g>
            <g id="Group-Copy-94" sketch:type="MSLayerGroup" transform="translate(42.000000, 274.000000) rotate(-72.000000) translate(-42.000000, -274.000000) translate(-561.000000, 264.000000)">
                <path d="M596,0 L616,0 L596,20 L596,0 Z M596,8.17124146e-14 L596,20 L318,20 L318,3.06446431e-14 L596,8.17124146e-14 Z M318,0 L318,20 L298,20 L318,0 Z" id="Triangle-1-Copy" fill="#494949" sketch:type="MSShapeGroup"></path>
                <path d="M888,0 L908,0 L888,20 L888,0 Z M888,8.17124146e-14 L888,20 L610,20 L610,3.06446431e-14 L888,8.17124146e-14 Z M610,0 L610,20 L590,20 L610,0 Z" id="Triangle-1-Copy-2" fill="#BFBFBF" sketch:type="MSShapeGroup"></path>
                <path d="M1186,0 L1206,0 L1186,20 L1186,0 Z M1186,8.17124146e-14 L1186,20 L908,20 L908,3.06446431e-14 L1186,8.17124146e-14 Z M908,0 L908,20 L888,20 L908,0 Z" id="Triangle-1-Copy-3" fill="#EAEAEA" sketch:type="MSShapeGroup"></path>
            </g>
            <g id="Group-Copy-93" sketch:type="MSLayerGroup" transform="translate(251.000000, -111.000000) rotate(-72.000000) translate(-251.000000, 111.000000) translate(-352.000000, -121.000000)">
                <path d="M298,0 L318,0 L298,20 L298,0 Z M298,8.17124146e-14 L298,20 L20,20 L20,3.06446431e-14 L298,8.17124146e-14 Z M20,0 L20,20 L0,20 L20,0 Z" id="Triangle-1" fill="#000000" sketch:type="MSShapeGroup"></path>
                <path d="M596,0 L616,0 L596,20 L596,0 Z M596,8.17124146e-14 L596,20 L318,20 L318,3.06446431e-14 L596,8.17124146e-14 Z M318,0 L318,20 L298,20 L318,0 Z" id="Triangle-1-Copy" fill="#494949" sketch:type="MSShapeGroup"></path>
            </g>
            <g id="Group-Copy-92" sketch:type="MSLayerGroup" transform="translate(146.000000, -111.000000) rotate(-72.000000) translate(-146.000000, 111.000000) translate(-457.000000, -121.000000)">
                <path d="M298,0 L318,0 L298,20 L298,0 Z M298,8.17124146e-14 L298,20 L20,20 L20,3.06446431e-14 L298,8.17124146e-14 Z M20,0 L20,20 L0,20 L20,0 Z" id="Triangle-1" fill="#000000" sketch:type="MSShapeGroup"></path>
                <path d="M596,0 L616,0 L596,20 L596,0 Z M596,8.17124146e-14 L596,20 L318,20 L318,3.06446431e-14 L596,8.17124146e-14 Z M318,0 L318,20 L298,20 L318,0 Z" id="Triangle-1-Copy" fill="#494949" sketch:type="MSShapeGroup"></path>
            </g>
            <g id="Group-Copy-91" sketch:type="MSLayerGroup" transform="translate(19.000000, -165.000000) rotate(-72.000000) translate(-19.000000, 165.000000) translate(-584.000000, -175.000000)" fill="#494949">
                <path d="M596,0 L616,0 L596,20 L596,0 Z M596,8.17124146e-14 L596,20 L318,20 L318,3.06446431e-14 L596,8.17124146e-14 Z M318,0 L318,20 L298,20 L318,0 Z" id="Triangle-1-Copy" sketch:type="MSShapeGroup"></path>
            </g>
            <g id="Group-Copy-90" sketch:type="MSLayerGroup" transform="translate(191.847813, -381.422751) rotate(-72.000000) translate(-191.847813, 381.422751) translate(-411.152187, -391.422751)" fill="#000000">
                <path d="M298,0 L318,0 L298,20 L298,0 Z M298,8.17124146e-14 L298,20 L20,20 L20,3.06446431e-14 L298,8.17124146e-14 Z M20,0 L20,20 L0,20 L20,0 Z" id="Triangle-1" sketch:type="MSShapeGroup"></path>
            </g>
            <g id="Group-Copy-115" sketch:type="MSLayerGroup" transform="translate(-47.000000, 225.422751) rotate(-72.000000) translate(47.000000, -225.422751) translate(-650.000000, 215.422751)" fill="#BFBFBF">
                <path d="M888,0 L908,0 L888,20 L888,0 Z M888,8.17124146e-14 L888,20 L610,20 L610,3.06446431e-14 L888,8.17124146e-14 Z M610,0 L610,20 L590,20 L610,0 Z" id="Triangle-1-Copy-2" sketch:type="MSShapeGroup"></path>
            </g>
            <g id="Group-Copy-114" sketch:type="MSLayerGroup" transform="translate(109.000000, -190.577249) rotate(-72.000000) translate(-109.000000, 190.577249) translate(-494.000000, -200.577249)">
                <path d="M298,0 L318,0 L298,20 L298,0 Z M298,8.17124146e-14 L298,20 L20,20 L20,3.06446431e-14 L298,8.17124146e-14 Z M20,0 L20,20 L0,20 L20,0 Z" id="Triangle-1" fill="#000000" sketch:type="MSShapeGroup"></path>
                <path d="M596,0 L616,0 L596,20 L596,0 Z M596,8.17124146e-14 L596,20 L318,20 L318,3.06446431e-14 L596,8.17124146e-14 Z M318,0 L318,20 L298,20 L318,0 Z" id="Triangle-1-Copy" fill="#494949" sketch:type="MSShapeGroup"></path>
            </g>
            <g id="Group-Copy-113" sketch:type="MSLayerGroup" transform="translate(155.000000, -461.577249) rotate(-72.000000) translate(-155.000000, 461.577249) translate(-448.000000, -471.577249)" fill="#000000">
                <path d="M298,0 L318,0 L298,20 L298,0 Z M298,8.17124146e-14 L298,20 L20,20 L20,3.06446431e-14 L298,8.17124146e-14 Z M20,0 L20,20 L0,20 L20,0 Z" id="Triangle-1" sketch:type="MSShapeGroup"></path>
            </g>
            <g id="Group-Copy-116" sketch:type="MSLayerGroup" transform="translate(421.847813, -382.422751) rotate(-72.000000) translate(-421.847813, 382.422751) translate(-181.152187, -392.422751)" fill="#000000">
                <path d="M298,0 L318,0 L298,20 L298,0 Z M298,8.17124146e-14 L298,20 L20,20 L20,3.06446431e-14 L298,8.17124146e-14 Z M20,0 L20,20 L0,20 L20,0 Z" id="Triangle-1" sketch:type="MSShapeGroup"></path>
            </g>
            <g id="Group-Copy-117" sketch:type="MSLayerGroup" transform="translate(626.847813, -57.422751) rotate(-72.000000) translate(-626.847813, 57.422751) translate(23.847813, -67.422751)">
                <path d="M298,0 L318,0 L298,20 L298,0 Z M298,8.17124146e-14 L298,20 L20,20 L20,3.06446431e-14 L298,8.17124146e-14 Z M20,0 L20,20 L0,20 L20,0 Z" id="Triangle-1" fill="#000000" sketch:type="MSShapeGroup"></path>
                <path d="M596,0 L616,0 L596,20 L596,0 Z M596,8.17124146e-14 L596,20 L318,20 L318,3.06446431e-14 L596,8.17124146e-14 Z M318,0 L318,20 L298,20 L318,0 Z" id="Triangle-1-Copy" fill="#494949" sketch:type="MSShapeGroup"></path>
            </g>
        </g>
        <rect id="Rectangle-1982" fill-opacity="0.690415534" fill="#000000" sketch:type="MSShapeGroup" x="-40" y="0" width="1114" height="990"></rect>
    </g>
</svg>